%TF.GenerationSoftware,KiCad,Pcbnew,10.0.4*%
%TF.CreationDate,2026-07-10T17:34:31+02:00*%
%TF.ProjectId,DazzerBlue-proj,44617a7a-6572-4426-9c75-652d70726f6a,rev?*%
%TF.SameCoordinates,Original*%
%TF.FileFunction,Copper,L2,Bot*%
%TF.FilePolarity,Positive*%
%FSLAX46Y46*%
G04 Gerber Fmt 4.6, Leading zero omitted, Abs format (unit mm)*
G04 Created by KiCad (PCBNEW 10.0.4) date 2026-07-10 17:34:31*
%MOMM*%
%LPD*%
G01*
G04 APERTURE LIST*
G04 Aperture macros list*
%AMRoundRect*
0 Rectangle with rounded corners*
0 $1 Rounding radius*
0 $2 $3 $4 $5 $6 $7 $8 $9 X,Y pos of 4 corners*
0 Add a 4 corners polygon primitive as box body*
4,1,4,$2,$3,$4,$5,$6,$7,$8,$9,$2,$3,0*
0 Add four circle primitives for the rounded corners*
1,1,$1+$1,$2,$3*
1,1,$1+$1,$4,$5*
1,1,$1+$1,$6,$7*
1,1,$1+$1,$8,$9*
0 Add four rect primitives between the rounded corners*
20,1,$1+$1,$2,$3,$4,$5,0*
20,1,$1+$1,$4,$5,$6,$7,0*
20,1,$1+$1,$6,$7,$8,$9,0*
20,1,$1+$1,$8,$9,$2,$3,0*%
G04 Aperture macros list end*
%TA.AperFunction,ComponentPad*%
%ADD10RoundRect,0.190500X-0.444500X-0.444500X0.444500X-0.444500X0.444500X0.444500X-0.444500X0.444500X0*%
%TD*%
%TA.AperFunction,ComponentPad*%
%ADD11RoundRect,0.190500X0.444500X-0.444500X0.444500X0.444500X-0.444500X0.444500X-0.444500X-0.444500X0*%
%TD*%
%TA.AperFunction,ComponentPad*%
%ADD12C,1.400000*%
%TD*%
%TA.AperFunction,ComponentPad*%
%ADD13R,2.252440X1.134998*%
%TD*%
%TA.AperFunction,ComponentPad*%
%ADD14R,2.201764X1.000000*%
%TD*%
%TA.AperFunction,ComponentPad*%
%ADD15RoundRect,0.190500X0.444500X0.444500X-0.444500X0.444500X-0.444500X-0.444500X0.444500X-0.444500X0*%
%TD*%
%TA.AperFunction,ComponentPad*%
%ADD16C,1.308000*%
%TD*%
%TA.AperFunction,ComponentPad*%
%ADD17R,1.800000X1.800000*%
%TD*%
%TA.AperFunction,ComponentPad*%
%ADD18C,1.800000*%
%TD*%
%TA.AperFunction,Conductor*%
%ADD19C,0.200000*%
%TD*%
G04 APERTURE END LIST*
D10*
%TO.P,C2,1*%
%TO.N,Net-(CON1-GND)*%
X180000000Y-73000000D03*
%TO.P,C2,2*%
%TO.N,Net-(C2-Pad2)*%
X183000000Y-73000000D03*
%TD*%
D11*
%TO.P,SWL,1,C_1*%
%TO.N,Net-(CON1-GND)*%
X158000000Y-59000000D03*
%TO.P,SWL,2,NO_2*%
%TO.N,Net-(SWL1-NO)*%
X158000000Y-54000000D03*
%TO.P,SWL,3,NC_3*%
%TO.N,unconnected-(SWL1-NC-Pad3)*%
X158000000Y-49000000D03*
%TD*%
%TO.P,SWR,1,C_1*%
%TO.N,Net-(CON1-GND)*%
X183500000Y-59000000D03*
%TO.P,SWR,2,NO_2*%
%TO.N,Net-(SWR1-NO)*%
X183500000Y-54000000D03*
%TO.P,SWR,3,NC_3*%
%TO.N,unconnected-(SWR1-NC-Pad3)*%
X183500000Y-49000000D03*
%TD*%
D12*
%TO.P,R5,1*%
%TO.N,Net-(D1-K)*%
X185990000Y-91500000D03*
%TO.P,R5,2*%
%TO.N,Net-(CON1-VCC)*%
X180910000Y-91500000D03*
%TD*%
%TO.P,R4,1*%
%TO.N,Net-(D1-K)*%
X186000000Y-94500000D03*
%TO.P,R4,2*%
%TO.N,Net-(CON1-VCC)*%
X180920000Y-94500000D03*
%TD*%
D10*
%TO.P,C1,1*%
%TO.N,Net-(CON1-GND)*%
X183000000Y-70000000D03*
%TO.P,C1,2*%
X186000000Y-70000000D03*
%TD*%
D11*
%TO.P,ENC,1,A_1*%
%TO.N,Net-(ENC1-A)*%
X166112500Y-57500000D03*
%TO.P,ENC,2,B_2*%
%TO.N,Net-(ENC1-B)*%
X166112500Y-55000000D03*
%TO.P,ENC,3,C_3*%
%TO.N,Net-(CON1-VCC)*%
X166112500Y-52500000D03*
D13*
%TO.P,ENC,4,THT1_4*%
%TO.N,unconnected-(ENC1-THT1-Pad4)*%
X164011680Y-60067499D03*
D14*
%TO.P,ENC,5,THT2_5*%
%TO.N,unconnected-(ENC1-THT2-Pad5)*%
X164037018Y-50000000D03*
%TD*%
D11*
%TO.P,SWM,1,C_1*%
%TO.N,Net-(CON1-GND)*%
X177500000Y-60500000D03*
%TO.P,SWM,2,NO_2*%
%TO.N,Net-(SWM1-NO)*%
X177500000Y-55500000D03*
%TO.P,SWM,3,NC_3*%
%TO.N,unconnected-(SWM1-NC-Pad3)*%
X177500000Y-50500000D03*
%TD*%
D15*
%TO.P,CON1,1,D1_1*%
%TO.N,Net-(CON1-D1)*%
X183500000Y-84000000D03*
%TO.P,CON1,2,D2_2*%
%TO.N,Net-(CON1-D2)*%
X183500000Y-82000000D03*
%TO.P,CON1,3,VCC_3*%
%TO.N,Net-(CON1-VCC)*%
X183500000Y-79500000D03*
%TO.P,CON1,4,GND_4*%
%TO.N,Net-(CON1-GND)*%
X183500000Y-77500000D03*
%TD*%
D16*
%TO.P,U1,1,VCC_1*%
%TO.N,Net-(CON1-VCC)*%
X178000000Y-79000000D03*
%TO.P,U1,2,GND_2*%
%TO.N,Net-(C2-Pad2)*%
X178000000Y-81000000D03*
%TO.P,U1,3,D2_3*%
%TO.N,Net-(CON1-D2)*%
X178000000Y-83000000D03*
%TO.P,U1,4,D1_4*%
%TO.N,Net-(CON1-D1)*%
X178000000Y-85000000D03*
%TO.P,U1,5,LED_GND_5*%
%TO.N,Net-(D1-A)*%
X178000000Y-87000000D03*
%TO.P,U1,6,LED_VCC_6*%
%TO.N,Net-(D1-K)*%
X178000000Y-89000000D03*
%TO.P,U1,7,GND_7*%
%TO.N,Net-(CON1-GND)*%
X164000000Y-80000000D03*
%TO.P,U1,8,ENC1_8*%
%TO.N,Net-(ENC1-B)*%
X164000000Y-82000000D03*
%TO.P,U1,9,ENC2_9*%
%TO.N,Net-(ENC1-A)*%
X164000000Y-84000000D03*
%TO.P,U1,10,LBTN_10*%
%TO.N,Net-(SWL1-NO)*%
X164000000Y-86000000D03*
%TO.P,U1,11,MBTN_11*%
%TO.N,Net-(SWM1-NO)*%
X164000000Y-88000000D03*
%TO.P,U1,12,RBTN_12*%
%TO.N,Net-(SWR1-NO)*%
X164000000Y-90000000D03*
%TD*%
D17*
%TO.P,+,1,K_1*%
%TO.N,Net-(D1-K)*%
X172770000Y-104000000D03*
D18*
%TO.P,+,2,A_2*%
%TO.N,Net-(D1-A)*%
X170230000Y-104000000D03*
%TD*%
%TO.N,Net-(CON1-GND)*%
D19*
X165459550Y-54065000D02*
X166765450Y-54065000D01*
X157862500Y-59000000D02*
X161500000Y-59000000D01*
X177500000Y-68000000D02*
X177500000Y-60500000D01*
X183000000Y-70000000D02*
X183000000Y-66000000D01*
X164000000Y-80000000D02*
X157862500Y-73862500D01*
X180000000Y-73000000D02*
X180000000Y-79000000D01*
X182000000Y-60500000D02*
X183500000Y-59000000D01*
X164000000Y-55524550D02*
X165459550Y-54065000D01*
X167047500Y-68547500D02*
X167400000Y-68900000D01*
X186000000Y-70000000D02*
X186000000Y-59500000D01*
X183500000Y-65500000D02*
X183500000Y-59000000D01*
X180000000Y-73000000D02*
X179500000Y-73000000D01*
X177500000Y-60500000D02*
X182000000Y-60500000D01*
X185500000Y-59000000D02*
X183500000Y-59000000D01*
X167047500Y-54347050D02*
X167047500Y-68547500D01*
X164000000Y-56500000D02*
X164000000Y-55524550D01*
X176600000Y-68900000D02*
X177500000Y-68000000D01*
X180000000Y-73000000D02*
X180500000Y-73000000D01*
X183500000Y-77500000D02*
X183500000Y-73500000D01*
X177000000Y-60500000D02*
X177500000Y-60500000D01*
X180000000Y-79000000D02*
X178000000Y-81000000D01*
X157862500Y-73862500D02*
X157862500Y-59000000D01*
X183000000Y-73000000D02*
X186000000Y-70000000D01*
X180000000Y-73000000D02*
X183000000Y-70000000D01*
X161500000Y-59000000D02*
X164000000Y-56500000D01*
X166765450Y-54065000D02*
X167047500Y-54347050D01*
X183000000Y-66000000D02*
X183500000Y-65500000D01*
X167400000Y-68900000D02*
X176600000Y-68900000D01*
X183500000Y-73500000D02*
X183000000Y-73000000D01*
X186000000Y-59500000D02*
X185500000Y-59000000D01*
%TO.N,Net-(SWL1-NO)*%
X164500000Y-86500000D02*
X156927500Y-78927500D01*
X156927500Y-78927500D02*
X156927500Y-54935000D01*
X156927500Y-54935000D02*
X157862500Y-54000000D01*
%TO.N,Net-(SWR1-NO)*%
X156127500Y-53581364D02*
X157043865Y-52665000D01*
X165459550Y-51565000D02*
X167130685Y-51565000D01*
X175000000Y-55846365D02*
X179281365Y-51565000D01*
X179281365Y-51565000D02*
X181065000Y-51565000D01*
X156127500Y-82127500D02*
X156127500Y-53581364D01*
X167130685Y-51565000D02*
X168400000Y-52834315D01*
X168665686Y-67600000D02*
X174900000Y-67600000D01*
X168400000Y-67334314D02*
X168665686Y-67600000D01*
X164000000Y-90000000D02*
X156127500Y-82127500D01*
X157043865Y-52665000D02*
X164500000Y-52665000D01*
X168400000Y-52834315D02*
X168400000Y-67334314D01*
X174900000Y-67600000D02*
X175000000Y-67500000D01*
X181065000Y-51565000D02*
X183500000Y-54000000D01*
X164500000Y-52665000D02*
X164500000Y-52524550D01*
X175000000Y-67500000D02*
X175000000Y-55846365D01*
X164500000Y-52524550D02*
X165459550Y-51565000D01*
%TO.N,Net-(D1-K)*%
X176490000Y-104000000D02*
X172770000Y-104000000D01*
X180495786Y-95500000D02*
X181990000Y-95500000D01*
X178000000Y-93004214D02*
X180495786Y-95500000D01*
X185990000Y-94500000D02*
X176490000Y-104000000D01*
X181990000Y-95500000D02*
X185990000Y-91500000D01*
X178000000Y-89000000D02*
X178000000Y-93004214D01*
X185990000Y-91500000D02*
X185990000Y-94500000D01*
%TO.N,Net-(CON1-VCC)*%
X183500000Y-79500000D02*
X184435000Y-80435000D01*
X184152950Y-54935000D02*
X184435000Y-54652950D01*
X156878179Y-52265000D02*
X155727500Y-53415678D01*
X180910000Y-94910000D02*
X181000000Y-95000000D01*
X165751472Y-97100000D02*
X176248528Y-97100000D01*
X175500000Y-68000000D02*
X175500000Y-55912050D01*
X155727500Y-53415678D02*
X155727500Y-87076028D01*
X184435000Y-54652950D02*
X184435000Y-53347050D01*
X180910000Y-94500000D02*
X180910000Y-94910000D01*
X167500000Y-52500000D02*
X168000000Y-53000000D01*
X165293865Y-51165000D02*
X167296371Y-51165000D01*
X175500000Y-55912050D02*
X178868075Y-52543975D01*
X155727500Y-87076028D02*
X165751472Y-97100000D01*
X164193864Y-52265000D02*
X156878179Y-52265000D01*
X177650840Y-86000000D02*
X177046000Y-85395160D01*
X178868075Y-52543975D02*
X180456025Y-52543975D01*
X169200000Y-67200000D02*
X174500000Y-67200000D01*
X180910000Y-94500000D02*
X180910000Y-93910000D01*
X168500000Y-68000000D02*
X175500000Y-68000000D01*
X180456025Y-52543975D02*
X182847050Y-54935000D01*
X174500000Y-55717950D02*
X179052950Y-51165000D01*
X182252950Y-51165000D02*
X184435000Y-53347050D01*
X184435000Y-80435000D02*
X184435000Y-87975000D01*
X177046000Y-85395160D02*
X177046000Y-79954000D01*
X179500000Y-87150840D02*
X178349160Y-86000000D01*
X179052950Y-51165000D02*
X182252950Y-51165000D01*
X168000000Y-67500000D02*
X168500000Y-68000000D01*
X176248528Y-97100000D02*
X176600000Y-96748528D01*
X179500000Y-92500000D02*
X179500000Y-87150840D01*
X167296371Y-51165000D02*
X169000000Y-52868629D01*
X166112500Y-52500000D02*
X167500000Y-52500000D01*
X184435000Y-53347050D02*
X184435000Y-53500000D01*
X180910000Y-91500000D02*
X180910000Y-94500000D01*
X169000000Y-52868629D02*
X169000000Y-67000000D01*
X169000000Y-67000000D02*
X169200000Y-67200000D01*
X176600000Y-96748528D02*
X176600000Y-80400000D01*
X174500000Y-67200000D02*
X174500000Y-55717950D01*
X168000000Y-53000000D02*
X168000000Y-67500000D01*
X164193864Y-52265000D02*
X165293865Y-51165000D01*
X180412050Y-52500000D02*
X180456025Y-52543975D01*
X180910000Y-93910000D02*
X179500000Y-92500000D01*
X182847050Y-54935000D02*
X184152950Y-54935000D01*
X177046000Y-79954000D02*
X178000000Y-79000000D01*
X176600000Y-80400000D02*
X178000000Y-79000000D01*
X178349160Y-86000000D02*
X177650840Y-86000000D01*
X184435000Y-87975000D02*
X180910000Y-91500000D01*
%TO.N,Net-(ENC1-A)*%
X166112500Y-57500000D02*
X166112500Y-68538972D01*
X164000000Y-84000000D02*
X164924895Y-84000000D01*
X165400000Y-83524895D02*
X165400000Y-69251472D01*
X164924895Y-84000000D02*
X165400000Y-83524895D01*
X166112500Y-68538972D02*
X165400000Y-69251472D01*
%TO.N,Net-(ENC1-B)*%
X165500000Y-68500000D02*
X165500000Y-58500000D01*
X165000000Y-56112500D02*
X166112500Y-55000000D01*
X165000000Y-58000000D02*
X165000000Y-56112500D01*
X165000000Y-69000000D02*
X165500000Y-68500000D01*
X164000000Y-82000000D02*
X165000000Y-81000000D01*
X165500000Y-58500000D02*
X165500000Y-58475450D01*
X165500000Y-58500000D02*
X165000000Y-58000000D01*
X165000000Y-81000000D02*
X165000000Y-69000000D01*
%TO.N,Net-(SWM1-NO)*%
X164459550Y-53065000D02*
X164829550Y-53435000D01*
X176467157Y-59944893D02*
X177500000Y-58912050D01*
X157209550Y-53065000D02*
X164459550Y-53065000D01*
X176434314Y-68500000D02*
X176467157Y-68467157D01*
X177500000Y-58912050D02*
X177500000Y-55500000D01*
X167435000Y-53435000D02*
X167465000Y-53435000D01*
X167500000Y-53500000D02*
X167500000Y-68434314D01*
X176467157Y-68467157D02*
X176467157Y-59944893D01*
X164829550Y-53435000D02*
X167435000Y-53435000D01*
X167435000Y-53435000D02*
X167500000Y-53500000D01*
X167565686Y-68500000D02*
X176434314Y-68500000D01*
X156527500Y-80527500D02*
X156527500Y-53747050D01*
X167500000Y-68434314D02*
X167565686Y-68500000D01*
X156527500Y-53747050D02*
X157209550Y-53065000D01*
X164000000Y-88000000D02*
X156527500Y-80527500D01*
%TO.N,Net-(CON1-D1)*%
X179000000Y-84000000D02*
X178000000Y-85000000D01*
X183500000Y-84000000D02*
X179000000Y-84000000D01*
%TO.N,Net-(CON1-D2)*%
X183500000Y-82000000D02*
X179000000Y-82000000D01*
X179000000Y-82000000D02*
X178000000Y-83000000D01*
%TO.N,Net-(D1-A)*%
X177046000Y-87954000D02*
X177046000Y-97184000D01*
X178000000Y-87000000D02*
X177046000Y-87954000D01*
X177046000Y-97184000D02*
X170230000Y-104000000D01*
%TD*%
%TA.AperFunction,Conductor*%
%TO.N,Net-(CON1-GND)*%
G36*
X182307539Y-48520185D02*
G01*
X182353294Y-48572989D01*
X182364500Y-48624500D01*
X182364500Y-49500354D01*
X182370825Y-49569966D01*
X182370828Y-49569977D01*
X182420747Y-49730175D01*
X182420749Y-49730179D01*
X182507556Y-49873777D01*
X182507560Y-49873782D01*
X182626217Y-49992439D01*
X182626222Y-49992443D01*
X182746815Y-50065343D01*
X182769822Y-50079251D01*
X182930029Y-50129173D01*
X182999653Y-50135500D01*
X184000346Y-50135499D01*
X184000353Y-50135499D01*
X184069966Y-50129174D01*
X184069969Y-50129173D01*
X184069971Y-50129173D01*
X184230178Y-50079251D01*
X184304089Y-50034570D01*
X184373777Y-49992443D01*
X184373778Y-49992441D01*
X184373783Y-49992439D01*
X184492439Y-49873783D01*
X184579251Y-49730178D01*
X184629173Y-49569971D01*
X184635500Y-49500347D01*
X184635499Y-48624499D01*
X184655183Y-48557461D01*
X184707987Y-48511706D01*
X184759499Y-48500500D01*
X186375500Y-48500500D01*
X186442539Y-48520185D01*
X186488294Y-48572989D01*
X186499500Y-48624500D01*
X186499500Y-68741000D01*
X186479815Y-68808039D01*
X186427011Y-68853794D01*
X186375500Y-68865000D01*
X186250000Y-68865000D01*
X186250000Y-69684314D01*
X186245606Y-69679920D01*
X186154394Y-69627259D01*
X186052661Y-69600000D01*
X185947339Y-69600000D01*
X185845606Y-69627259D01*
X185754394Y-69679920D01*
X185750000Y-69684314D01*
X185750000Y-68865000D01*
X185499691Y-68865000D01*
X185430123Y-68871321D01*
X185430116Y-68871323D01*
X185270029Y-68921208D01*
X185270027Y-68921209D01*
X185126532Y-69007954D01*
X185126528Y-69007957D01*
X185007957Y-69126528D01*
X185007954Y-69126532D01*
X184921210Y-69270026D01*
X184871322Y-69430123D01*
X184865000Y-69499701D01*
X184865000Y-69750000D01*
X185684314Y-69750000D01*
X185679920Y-69754394D01*
X185627259Y-69845606D01*
X185600000Y-69947339D01*
X185600000Y-70052661D01*
X185627259Y-70154394D01*
X185679920Y-70245606D01*
X185684314Y-70250000D01*
X184865001Y-70250000D01*
X184865001Y-70500308D01*
X184871321Y-70569875D01*
X184871323Y-70569883D01*
X184921208Y-70729970D01*
X184921209Y-70729972D01*
X185007954Y-70873467D01*
X185007957Y-70873471D01*
X185126528Y-70992042D01*
X185126532Y-70992045D01*
X185270026Y-71078789D01*
X185430123Y-71128677D01*
X185499701Y-71134999D01*
X185749999Y-71134999D01*
X185750000Y-71134998D01*
X185750000Y-70315686D01*
X185754394Y-70320080D01*
X185845606Y-70372741D01*
X185947339Y-70400000D01*
X186052661Y-70400000D01*
X186154394Y-70372741D01*
X186245606Y-70320080D01*
X186250000Y-70315686D01*
X186250000Y-71134999D01*
X186375500Y-71134999D01*
X186442539Y-71154684D01*
X186488294Y-71207488D01*
X186499500Y-71258999D01*
X186499500Y-90232593D01*
X186479815Y-90299632D01*
X186427011Y-90345387D01*
X186357853Y-90355331D01*
X186337183Y-90350524D01*
X186271126Y-90329061D01*
X186271119Y-90329060D01*
X186084486Y-90299500D01*
X186084481Y-90299500D01*
X185895519Y-90299500D01*
X185895514Y-90299500D01*
X185708881Y-90329059D01*
X185529163Y-90387454D01*
X185360800Y-90473240D01*
X185273579Y-90536610D01*
X185207927Y-90584310D01*
X185207925Y-90584312D01*
X185207924Y-90584312D01*
X185074312Y-90717924D01*
X185074312Y-90717925D01*
X185074310Y-90717927D01*
X185049477Y-90752107D01*
X184963240Y-90870800D01*
X184877454Y-91039163D01*
X184819059Y-91218881D01*
X184789500Y-91405513D01*
X184789500Y-91594486D01*
X184814725Y-91753751D01*
X184805770Y-91823045D01*
X184779933Y-91860830D01*
X182308273Y-94332491D01*
X182246950Y-94365976D01*
X182177258Y-94360992D01*
X182121325Y-94319120D01*
X182098119Y-94264208D01*
X182096952Y-94256845D01*
X182090940Y-94218882D01*
X182032547Y-94039168D01*
X182032545Y-94039165D01*
X182032545Y-94039163D01*
X181946759Y-93870800D01*
X181835690Y-93717927D01*
X181702073Y-93584310D01*
X181561614Y-93482260D01*
X181518949Y-93426931D01*
X181510500Y-93381943D01*
X181510500Y-92610791D01*
X181530185Y-92543752D01*
X181561612Y-92510475D01*
X181692073Y-92415690D01*
X181825690Y-92282073D01*
X181936760Y-92129199D01*
X182022547Y-91960832D01*
X182080940Y-91781118D01*
X182110500Y-91594486D01*
X182110500Y-91405513D01*
X182085274Y-91246246D01*
X182094228Y-91176953D01*
X182120063Y-91139170D01*
X184793506Y-88465728D01*
X184793511Y-88465724D01*
X184803714Y-88455520D01*
X184803716Y-88455520D01*
X184915520Y-88343716D01*
X184980143Y-88231785D01*
X184994577Y-88206785D01*
X185035501Y-88054057D01*
X185035501Y-87895942D01*
X185035501Y-87888347D01*
X185035500Y-87888329D01*
X185035500Y-80524060D01*
X185035501Y-80524047D01*
X185035501Y-80355944D01*
X185025891Y-80320080D01*
X184994577Y-80203216D01*
X184966390Y-80154394D01*
X184915524Y-80066290D01*
X184915518Y-80066282D01*
X184671818Y-79822582D01*
X184638333Y-79761259D01*
X184635499Y-79734901D01*
X184635499Y-78999645D01*
X184629174Y-78930033D01*
X184629171Y-78930022D01*
X184579252Y-78769824D01*
X184579250Y-78769820D01*
X184492443Y-78626222D01*
X184492438Y-78626216D01*
X184453548Y-78587325D01*
X184420063Y-78526002D01*
X184425049Y-78456310D01*
X184453550Y-78411963D01*
X184492042Y-78373471D01*
X184492045Y-78373467D01*
X184578789Y-78229973D01*
X184628677Y-78069876D01*
X184635000Y-78000298D01*
X184635000Y-77750000D01*
X183815686Y-77750000D01*
X183820080Y-77745606D01*
X183872741Y-77654394D01*
X183900000Y-77552661D01*
X183900000Y-77447339D01*
X183872741Y-77345606D01*
X183820080Y-77254394D01*
X183815686Y-77250000D01*
X184634999Y-77250000D01*
X184634999Y-76999691D01*
X184628678Y-76930124D01*
X184628676Y-76930116D01*
X184578791Y-76770029D01*
X184578790Y-76770027D01*
X184492045Y-76626532D01*
X184492042Y-76626528D01*
X184373471Y-76507957D01*
X184373467Y-76507954D01*
X184229973Y-76421210D01*
X184069876Y-76371322D01*
X184000298Y-76365000D01*
X183750000Y-76365000D01*
X183750000Y-77184314D01*
X183745606Y-77179920D01*
X183654394Y-77127259D01*
X183552661Y-77100000D01*
X183447339Y-77100000D01*
X183345606Y-77127259D01*
X183254394Y-77179920D01*
X183250000Y-77184314D01*
X183250000Y-76365000D01*
X182999691Y-76365000D01*
X182930123Y-76371321D01*
X182930116Y-76371323D01*
X182770029Y-76421208D01*
X182770027Y-76421209D01*
X182626532Y-76507954D01*
X182626528Y-76507957D01*
X182507957Y-76626528D01*
X182507954Y-76626532D01*
X182421210Y-76770026D01*
X182371322Y-76930123D01*
X182365000Y-76999701D01*
X182365000Y-77250000D01*
X183184314Y-77250000D01*
X183179920Y-77254394D01*
X183127259Y-77345606D01*
X183100000Y-77447339D01*
X183100000Y-77552661D01*
X183127259Y-77654394D01*
X183179920Y-77745606D01*
X183184314Y-77750000D01*
X182365001Y-77750000D01*
X182365001Y-78000308D01*
X182371321Y-78069875D01*
X182371323Y-78069883D01*
X182421208Y-78229970D01*
X182421209Y-78229972D01*
X182507954Y-78373467D01*
X182507957Y-78373471D01*
X182546451Y-78411965D01*
X182579936Y-78473288D01*
X182574952Y-78542980D01*
X182546451Y-78587327D01*
X182507560Y-78626217D01*
X182507556Y-78626222D01*
X182420750Y-78769819D01*
X182370826Y-78930032D01*
X182364500Y-78999655D01*
X182364500Y-80000354D01*
X182370825Y-80069966D01*
X182370828Y-80069977D01*
X182420747Y-80230175D01*
X182420749Y-80230179D01*
X182507556Y-80373777D01*
X182507560Y-80373782D01*
X182626217Y-80492439D01*
X182626222Y-80492443D01*
X182732725Y-80556825D01*
X182769822Y-80579251D01*
X182930029Y-80629173D01*
X182930033Y-80629173D01*
X182936293Y-80631124D01*
X182935591Y-80633374D01*
X182987954Y-80660756D01*
X183022536Y-80721467D01*
X183018805Y-80791237D01*
X182977946Y-80847914D01*
X182935767Y-80867186D01*
X182936293Y-80868874D01*
X182769824Y-80920747D01*
X182769820Y-80920749D01*
X182626222Y-81007556D01*
X182626217Y-81007560D01*
X182507560Y-81126217D01*
X182507556Y-81126222D01*
X182420750Y-81269819D01*
X182420749Y-81269821D01*
X182420749Y-81269822D01*
X182407483Y-81312391D01*
X182368747Y-81370538D01*
X182304722Y-81398512D01*
X182289099Y-81399500D01*
X179250801Y-81399500D01*
X179183762Y-81379815D01*
X179138007Y-81327011D01*
X179128063Y-81257853D01*
X179128328Y-81256102D01*
X179154500Y-81090860D01*
X179154500Y-80909139D01*
X179148432Y-80870827D01*
X179126072Y-80729654D01*
X179126071Y-80729650D01*
X179126071Y-80729649D01*
X179069918Y-80556828D01*
X179069916Y-80556825D01*
X179053222Y-80524060D01*
X178987417Y-80394910D01*
X178880603Y-80247894D01*
X178752106Y-80119397D01*
X178725845Y-80100317D01*
X178683180Y-80044988D01*
X178677201Y-79975375D01*
X178709807Y-79913580D01*
X178725846Y-79899682D01*
X178752106Y-79880603D01*
X178880603Y-79752106D01*
X178987417Y-79605090D01*
X179069917Y-79443174D01*
X179122013Y-79282839D01*
X179126071Y-79270350D01*
X179126071Y-79270349D01*
X179126072Y-79270346D01*
X179154500Y-79090861D01*
X179154500Y-78909139D01*
X179126072Y-78729654D01*
X179126071Y-78729650D01*
X179126071Y-78729649D01*
X179069918Y-78556828D01*
X179069916Y-78556825D01*
X179018702Y-78456310D01*
X178987417Y-78394910D01*
X178880603Y-78247894D01*
X178752106Y-78119397D01*
X178605090Y-78012583D01*
X178443174Y-77930083D01*
X178443171Y-77930081D01*
X178270348Y-77873928D01*
X178150689Y-77854976D01*
X178090861Y-77845500D01*
X177909139Y-77845500D01*
X177849310Y-77854976D01*
X177729652Y-77873928D01*
X177729649Y-77873928D01*
X177556828Y-77930081D01*
X177556825Y-77930083D01*
X177394909Y-78012583D01*
X177316055Y-78069875D01*
X177247894Y-78119397D01*
X177247892Y-78119399D01*
X177247891Y-78119399D01*
X177119399Y-78247891D01*
X177119399Y-78247892D01*
X177119397Y-78247894D01*
X177073525Y-78311030D01*
X177012583Y-78394909D01*
X176930083Y-78556825D01*
X176930081Y-78556828D01*
X176873928Y-78729649D01*
X176873928Y-78729652D01*
X176845500Y-78909139D01*
X176845500Y-79090860D01*
X176864931Y-79213545D01*
X176855976Y-79282839D01*
X176830140Y-79320624D01*
X176712179Y-79438584D01*
X176650859Y-79472068D01*
X176581167Y-79467084D01*
X176525233Y-79425213D01*
X176500816Y-79359749D01*
X176500500Y-79350902D01*
X176500500Y-72499701D01*
X178865000Y-72499701D01*
X178865000Y-72750000D01*
X179684314Y-72750000D01*
X179679920Y-72754394D01*
X179627259Y-72845606D01*
X179600000Y-72947339D01*
X179600000Y-73052661D01*
X179627259Y-73154394D01*
X179679920Y-73245606D01*
X179684314Y-73250000D01*
X178865001Y-73250000D01*
X178865001Y-73500308D01*
X178871321Y-73569875D01*
X178871323Y-73569883D01*
X178921208Y-73729970D01*
X178921209Y-73729972D01*
X179007954Y-73873467D01*
X179007957Y-73873471D01*
X179126528Y-73992042D01*
X179126532Y-73992045D01*
X179270026Y-74078789D01*
X179430123Y-74128677D01*
X179499701Y-74134999D01*
X179749999Y-74134999D01*
X179750000Y-74134998D01*
X179750000Y-73315686D01*
X179754394Y-73320080D01*
X179845606Y-73372741D01*
X179947339Y-73400000D01*
X180052661Y-73400000D01*
X180154394Y-73372741D01*
X180245606Y-73320080D01*
X180250000Y-73315686D01*
X180250000Y-74134999D01*
X180500307Y-74134999D01*
X180569875Y-74128678D01*
X180569883Y-74128676D01*
X180729970Y-74078791D01*
X180729972Y-74078790D01*
X180873467Y-73992045D01*
X180873471Y-73992042D01*
X180992042Y-73873471D01*
X180992045Y-73873467D01*
X181078789Y-73729973D01*
X181128677Y-73569876D01*
X181135000Y-73500298D01*
X181135000Y-73250000D01*
X180315686Y-73250000D01*
X180320080Y-73245606D01*
X180372741Y-73154394D01*
X180400000Y-73052661D01*
X180400000Y-72947339D01*
X180372741Y-72845606D01*
X180320080Y-72754394D01*
X180315686Y-72750000D01*
X181134999Y-72750000D01*
X181134999Y-72499691D01*
X181134996Y-72499655D01*
X181864500Y-72499655D01*
X181864500Y-73500354D01*
X181870825Y-73569966D01*
X181870828Y-73569977D01*
X181920747Y-73730175D01*
X181920749Y-73730179D01*
X182007556Y-73873777D01*
X182007560Y-73873782D01*
X182126217Y-73992439D01*
X182126222Y-73992443D01*
X182246815Y-74065343D01*
X182269822Y-74079251D01*
X182430029Y-74129173D01*
X182499653Y-74135500D01*
X183500346Y-74135499D01*
X183500353Y-74135499D01*
X183569966Y-74129174D01*
X183569969Y-74129173D01*
X183569971Y-74129173D01*
X183730178Y-74079251D01*
X183804089Y-74034570D01*
X183873777Y-73992443D01*
X183873778Y-73992441D01*
X183873783Y-73992439D01*
X183992439Y-73873783D01*
X184079251Y-73730178D01*
X184129173Y-73569971D01*
X184135500Y-73500347D01*
X184135499Y-72499654D01*
X184135499Y-72499653D01*
X184135499Y-72499645D01*
X184129174Y-72430033D01*
X184129171Y-72430022D01*
X184079252Y-72269824D01*
X184079250Y-72269820D01*
X183992443Y-72126222D01*
X183992439Y-72126217D01*
X183873782Y-72007560D01*
X183873777Y-72007556D01*
X183730180Y-71920750D01*
X183730179Y-71920749D01*
X183730178Y-71920749D01*
X183569971Y-71870827D01*
X183569969Y-71870826D01*
X183569967Y-71870826D01*
X183521221Y-71866396D01*
X183500347Y-71864500D01*
X183500344Y-71864500D01*
X182499645Y-71864500D01*
X182430033Y-71870825D01*
X182430022Y-71870828D01*
X182269824Y-71920747D01*
X182269820Y-71920749D01*
X182126222Y-72007556D01*
X182126217Y-72007560D01*
X182007560Y-72126217D01*
X182007556Y-72126222D01*
X181920750Y-72269819D01*
X181920750Y-72269820D01*
X181920749Y-72269822D01*
X181895788Y-72349925D01*
X181870826Y-72430032D01*
X181864500Y-72499655D01*
X181134996Y-72499655D01*
X181128678Y-72430124D01*
X181128676Y-72430116D01*
X181078791Y-72270029D01*
X181078790Y-72270027D01*
X180992045Y-72126532D01*
X180992042Y-72126528D01*
X180873471Y-72007957D01*
X180873467Y-72007954D01*
X180729973Y-71921210D01*
X180569876Y-71871322D01*
X180500298Y-71865000D01*
X180250000Y-71865000D01*
X180250000Y-72684314D01*
X180245606Y-72679920D01*
X180154394Y-72627259D01*
X180052661Y-72600000D01*
X179947339Y-72600000D01*
X179845606Y-72627259D01*
X179754394Y-72679920D01*
X179750000Y-72684314D01*
X179750000Y-71865000D01*
X179499691Y-71865000D01*
X179430123Y-71871321D01*
X179430116Y-71871323D01*
X179270029Y-71921208D01*
X179270027Y-71921209D01*
X179126532Y-72007954D01*
X179126528Y-72007957D01*
X179007957Y-72126528D01*
X179007954Y-72126532D01*
X178921210Y-72270026D01*
X178871322Y-72430123D01*
X178865000Y-72499701D01*
X176500500Y-72499701D01*
X176500500Y-69499701D01*
X181865000Y-69499701D01*
X181865000Y-69750000D01*
X182684314Y-69750000D01*
X182679920Y-69754394D01*
X182627259Y-69845606D01*
X182600000Y-69947339D01*
X182600000Y-70052661D01*
X182627259Y-70154394D01*
X182679920Y-70245606D01*
X182684314Y-70250000D01*
X181865001Y-70250000D01*
X181865001Y-70500308D01*
X181871321Y-70569875D01*
X181871323Y-70569883D01*
X181921208Y-70729970D01*
X181921209Y-70729972D01*
X182007954Y-70873467D01*
X182007957Y-70873471D01*
X182126528Y-70992042D01*
X182126532Y-70992045D01*
X182270026Y-71078789D01*
X182430123Y-71128677D01*
X182499701Y-71134999D01*
X182749999Y-71134999D01*
X182750000Y-71134998D01*
X182750000Y-70315686D01*
X182754394Y-70320080D01*
X182845606Y-70372741D01*
X182947339Y-70400000D01*
X183052661Y-70400000D01*
X183154394Y-70372741D01*
X183245606Y-70320080D01*
X183250000Y-70315686D01*
X183250000Y-71134999D01*
X183500307Y-71134999D01*
X183569875Y-71128678D01*
X183569883Y-71128676D01*
X183729970Y-71078791D01*
X183729972Y-71078790D01*
X183873467Y-70992045D01*
X183873471Y-70992042D01*
X183992042Y-70873471D01*
X183992045Y-70873467D01*
X184078789Y-70729973D01*
X184128677Y-70569876D01*
X184135000Y-70500298D01*
X184135000Y-70250000D01*
X183315686Y-70250000D01*
X183320080Y-70245606D01*
X183372741Y-70154394D01*
X183400000Y-70052661D01*
X183400000Y-69947339D01*
X183372741Y-69845606D01*
X183320080Y-69754394D01*
X183315686Y-69750000D01*
X184134999Y-69750000D01*
X184134999Y-69499691D01*
X184128678Y-69430124D01*
X184128676Y-69430116D01*
X184078791Y-69270029D01*
X184078790Y-69270027D01*
X183992045Y-69126532D01*
X183992042Y-69126528D01*
X183873471Y-69007957D01*
X183873467Y-69007954D01*
X183729973Y-68921210D01*
X183569876Y-68871322D01*
X183500298Y-68865000D01*
X183250000Y-68865000D01*
X183250000Y-69684314D01*
X183245606Y-69679920D01*
X183154394Y-69627259D01*
X183052661Y-69600000D01*
X182947339Y-69600000D01*
X182845606Y-69627259D01*
X182754394Y-69679920D01*
X182750000Y-69684314D01*
X182750000Y-68865000D01*
X182499691Y-68865000D01*
X182430123Y-68871321D01*
X182430116Y-68871323D01*
X182270029Y-68921208D01*
X182270027Y-68921209D01*
X182126532Y-69007954D01*
X182126528Y-69007957D01*
X182007957Y-69126528D01*
X182007954Y-69126532D01*
X181921210Y-69270026D01*
X181871322Y-69430123D01*
X181865000Y-69499701D01*
X176500500Y-69499701D01*
X176500500Y-69434110D01*
X176500500Y-69434108D01*
X176466392Y-69306814D01*
X176466389Y-69306808D01*
X176450330Y-69278993D01*
X176433856Y-69211093D01*
X176456708Y-69145066D01*
X176511628Y-69101875D01*
X176525607Y-69097222D01*
X176666099Y-69059577D01*
X176735528Y-69019492D01*
X176803030Y-68980520D01*
X176914834Y-68868716D01*
X176947677Y-68835873D01*
X176985159Y-68770952D01*
X177007763Y-68731801D01*
X177007766Y-68731792D01*
X177007772Y-68731784D01*
X177026734Y-68698942D01*
X177067658Y-68546214D01*
X177067658Y-68388100D01*
X177067658Y-68380505D01*
X177067657Y-68380487D01*
X177067657Y-61758999D01*
X177087342Y-61691960D01*
X177140146Y-61646205D01*
X177191657Y-61634999D01*
X177250000Y-61634999D01*
X177250000Y-60815686D01*
X177254394Y-60820080D01*
X177345606Y-60872741D01*
X177447339Y-60900000D01*
X177552661Y-60900000D01*
X177654394Y-60872741D01*
X177745606Y-60820080D01*
X177750000Y-60815686D01*
X177750000Y-61634999D01*
X178000307Y-61634999D01*
X178069875Y-61628678D01*
X178069883Y-61628676D01*
X178229970Y-61578791D01*
X178229972Y-61578790D01*
X178238028Y-61573920D01*
X184249499Y-61573920D01*
X184278340Y-61718907D01*
X184278343Y-61718917D01*
X184334912Y-61855488D01*
X184334919Y-61855501D01*
X184417048Y-61978415D01*
X184417051Y-61978419D01*
X184521580Y-62082948D01*
X184521584Y-62082951D01*
X184644498Y-62165080D01*
X184644511Y-62165087D01*
X184781082Y-62221656D01*
X184781087Y-62221658D01*
X184781091Y-62221658D01*
X184781092Y-62221659D01*
X184926079Y-62250500D01*
X184926082Y-62250500D01*
X185073920Y-62250500D01*
X185171462Y-62231096D01*
X185218913Y-62221658D01*
X185355495Y-62165084D01*
X185478416Y-62082951D01*
X185582951Y-61978416D01*
X185665084Y-61855495D01*
X185721658Y-61718913D01*
X185750500Y-61573918D01*
X185750500Y-61426082D01*
X185750500Y-61426079D01*
X185721659Y-61281092D01*
X185721658Y-61281091D01*
X185721658Y-61281087D01*
X185700486Y-61229973D01*
X185665087Y-61144511D01*
X185665080Y-61144498D01*
X185582951Y-61021584D01*
X185582948Y-61021580D01*
X185478419Y-60917051D01*
X185478415Y-60917048D01*
X185355501Y-60834919D01*
X185355488Y-60834912D01*
X185218917Y-60778343D01*
X185218907Y-60778340D01*
X185073920Y-60749500D01*
X185073918Y-60749500D01*
X184926082Y-60749500D01*
X184926080Y-60749500D01*
X184781092Y-60778340D01*
X184781082Y-60778343D01*
X184644511Y-60834912D01*
X184644498Y-60834919D01*
X184521584Y-60917048D01*
X184521580Y-60917051D01*
X184417051Y-61021580D01*
X184417048Y-61021584D01*
X184334919Y-61144498D01*
X184334912Y-61144511D01*
X184278343Y-61281082D01*
X184278340Y-61281092D01*
X184249500Y-61426079D01*
X184249500Y-61426082D01*
X184249500Y-61573918D01*
X184249500Y-61573920D01*
X184249499Y-61573920D01*
X178238028Y-61573920D01*
X178373467Y-61492045D01*
X178373471Y-61492042D01*
X178492041Y-61373472D01*
X178502700Y-61355841D01*
X178502702Y-61355838D01*
X178578789Y-61229973D01*
X178628677Y-61069876D01*
X178635000Y-61000298D01*
X178635000Y-60750000D01*
X177815686Y-60750000D01*
X177820080Y-60745606D01*
X177872741Y-60654394D01*
X177900000Y-60552661D01*
X177900000Y-60447339D01*
X177872741Y-60345606D01*
X177820080Y-60254394D01*
X177815686Y-60250000D01*
X178634999Y-60250000D01*
X178634999Y-59999691D01*
X178628678Y-59930124D01*
X178628676Y-59930116D01*
X178578791Y-59770029D01*
X178578790Y-59770027D01*
X178492045Y-59626532D01*
X178492042Y-59626528D01*
X178373471Y-59507957D01*
X178373467Y-59507954D01*
X178229972Y-59421209D01*
X178229968Y-59421207D01*
X178097847Y-59380037D01*
X178079069Y-59367527D01*
X178058114Y-59359146D01*
X178050547Y-59348527D01*
X178039699Y-59341300D01*
X178030665Y-59320623D01*
X178017569Y-59302244D01*
X178016944Y-59289220D01*
X178011725Y-59277274D01*
X178015304Y-59254993D01*
X178014224Y-59232454D01*
X178022078Y-59212825D01*
X178022807Y-59208289D01*
X178027317Y-59199708D01*
X178059577Y-59143834D01*
X178100501Y-58991107D01*
X178100501Y-58832992D01*
X178100501Y-58825397D01*
X178100500Y-58825379D01*
X178100500Y-58499701D01*
X182365000Y-58499701D01*
X182365000Y-58750000D01*
X183184314Y-58750000D01*
X183179920Y-58754394D01*
X183127259Y-58845606D01*
X183100000Y-58947339D01*
X183100000Y-59052661D01*
X183127259Y-59154394D01*
X183179920Y-59245606D01*
X183184314Y-59250000D01*
X182365001Y-59250000D01*
X182365001Y-59500308D01*
X182371321Y-59569875D01*
X182371323Y-59569883D01*
X182421208Y-59729970D01*
X182421209Y-59729972D01*
X182507954Y-59873467D01*
X182507957Y-59873471D01*
X182626528Y-59992042D01*
X182626532Y-59992045D01*
X182770026Y-60078789D01*
X182930123Y-60128677D01*
X182999701Y-60134999D01*
X183249999Y-60134999D01*
X183250000Y-60134998D01*
X183250000Y-59315686D01*
X183254394Y-59320080D01*
X183345606Y-59372741D01*
X183447339Y-59400000D01*
X183552661Y-59400000D01*
X183654394Y-59372741D01*
X183745606Y-59320080D01*
X183750000Y-59315686D01*
X183750000Y-60134999D01*
X184000307Y-60134999D01*
X184069875Y-60128678D01*
X184069883Y-60128676D01*
X184229970Y-60078791D01*
X184229972Y-60078790D01*
X184373467Y-59992045D01*
X184373471Y-59992042D01*
X184492042Y-59873471D01*
X184492045Y-59873467D01*
X184578789Y-59729973D01*
X184628677Y-59569876D01*
X184635000Y-59500298D01*
X184635000Y-59250000D01*
X183815686Y-59250000D01*
X183820080Y-59245606D01*
X183872741Y-59154394D01*
X183900000Y-59052661D01*
X183900000Y-58947339D01*
X183872741Y-58845606D01*
X183820080Y-58754394D01*
X183815686Y-58750000D01*
X184634999Y-58750000D01*
X184634999Y-58499691D01*
X184628678Y-58430124D01*
X184628676Y-58430116D01*
X184578791Y-58270029D01*
X184578790Y-58270027D01*
X184492045Y-58126532D01*
X184492042Y-58126528D01*
X184373471Y-58007957D01*
X184373467Y-58007954D01*
X184229973Y-57921210D01*
X184069876Y-57871322D01*
X184000298Y-57865000D01*
X183750000Y-57865000D01*
X183750000Y-58684314D01*
X183745606Y-58679920D01*
X183654394Y-58627259D01*
X183552661Y-58600000D01*
X183447339Y-58600000D01*
X183345606Y-58627259D01*
X183254394Y-58679920D01*
X183250000Y-58684314D01*
X183250000Y-57865000D01*
X182999691Y-57865000D01*
X182930123Y-57871321D01*
X182930116Y-57871323D01*
X182770029Y-57921208D01*
X182770027Y-57921209D01*
X182626532Y-58007954D01*
X182626528Y-58007957D01*
X182507957Y-58126528D01*
X182507954Y-58126532D01*
X182421210Y-58270026D01*
X182371322Y-58430123D01*
X182365000Y-58499701D01*
X178100500Y-58499701D01*
X178100500Y-56710900D01*
X178120185Y-56643861D01*
X178172989Y-56598106D01*
X178187602Y-56592517D01*
X178230178Y-56579251D01*
X178304089Y-56534570D01*
X178373777Y-56492443D01*
X178373778Y-56492441D01*
X178373783Y-56492439D01*
X178492439Y-56373783D01*
X178579251Y-56230178D01*
X178629173Y-56069971D01*
X178635500Y-56000347D01*
X178635499Y-54999654D01*
X178635499Y-54999645D01*
X178629174Y-54930031D01*
X178629171Y-54930022D01*
X178579252Y-54769824D01*
X178579250Y-54769820D01*
X178492443Y-54626222D01*
X178492439Y-54626217D01*
X178373782Y-54507560D01*
X178373777Y-54507556D01*
X178230179Y-54420749D01*
X178230177Y-54420748D01*
X178128938Y-54389201D01*
X178070791Y-54350464D01*
X178042817Y-54286438D01*
X178053899Y-54217453D01*
X178078145Y-54183138D01*
X179080491Y-53180794D01*
X179141814Y-53147309D01*
X179168172Y-53144475D01*
X180155928Y-53144475D01*
X180222967Y-53164160D01*
X180243609Y-53180794D01*
X182362189Y-55299374D01*
X182362199Y-55299385D01*
X182366529Y-55303715D01*
X182366530Y-55303716D01*
X182478334Y-55415520D01*
X182565145Y-55465639D01*
X182565147Y-55465641D01*
X182603201Y-55487611D01*
X182615265Y-55494577D01*
X182767993Y-55535501D01*
X182767996Y-55535501D01*
X182933703Y-55535501D01*
X182933719Y-55535500D01*
X184066281Y-55535500D01*
X184066297Y-55535501D01*
X184073893Y-55535501D01*
X184232004Y-55535501D01*
X184232007Y-55535501D01*
X184384735Y-55494577D01*
X184434854Y-55465639D01*
X184521666Y-55415520D01*
X184633470Y-55303716D01*
X184633470Y-55303714D01*
X184643678Y-55293507D01*
X184643680Y-55293504D01*
X184793506Y-55143678D01*
X184793511Y-55143674D01*
X184803714Y-55133470D01*
X184803716Y-55133470D01*
X184915520Y-55021666D01*
X184968426Y-54930029D01*
X184994577Y-54884735D01*
X185035501Y-54732007D01*
X185035501Y-54573893D01*
X185035501Y-54566298D01*
X185035500Y-54566280D01*
X185035500Y-53436110D01*
X185035501Y-53436097D01*
X185035501Y-53267994D01*
X185035501Y-53267993D01*
X184994577Y-53115266D01*
X184994573Y-53115259D01*
X184915524Y-52978340D01*
X184915518Y-52978332D01*
X182740540Y-50803355D01*
X182740538Y-50803352D01*
X182621667Y-50684481D01*
X182621666Y-50684480D01*
X182534854Y-50634360D01*
X182534854Y-50634359D01*
X182534850Y-50634358D01*
X182484735Y-50605423D01*
X182332007Y-50564499D01*
X182173893Y-50564499D01*
X182166297Y-50564499D01*
X182166281Y-50564500D01*
X179139620Y-50564500D01*
X179139604Y-50564499D01*
X179132008Y-50564499D01*
X178973893Y-50564499D01*
X178897529Y-50584961D01*
X178821164Y-50605423D01*
X178813656Y-50608534D01*
X178813129Y-50607262D01*
X178753589Y-50621702D01*
X178687564Y-50598845D01*
X178644378Y-50543920D01*
X178635499Y-50497843D01*
X178635499Y-49999645D01*
X178629174Y-49930033D01*
X178629171Y-49930022D01*
X178579252Y-49769824D01*
X178579250Y-49769820D01*
X178492443Y-49626222D01*
X178492439Y-49626217D01*
X178373782Y-49507560D01*
X178373777Y-49507556D01*
X178230180Y-49420750D01*
X178230179Y-49420749D01*
X178230178Y-49420749D01*
X178069971Y-49370827D01*
X178069969Y-49370826D01*
X178069967Y-49370826D01*
X178021221Y-49366396D01*
X178000347Y-49364500D01*
X178000344Y-49364500D01*
X176999645Y-49364500D01*
X176930033Y-49370825D01*
X176930022Y-49370828D01*
X176769824Y-49420747D01*
X176769820Y-49420749D01*
X176626222Y-49507556D01*
X176626217Y-49507560D01*
X176507560Y-49626217D01*
X176507556Y-49626222D01*
X176420750Y-49769819D01*
X176370826Y-49930032D01*
X176364500Y-49999655D01*
X176364500Y-51000354D01*
X176370825Y-51069966D01*
X176370828Y-51069977D01*
X176420747Y-51230175D01*
X176420749Y-51230179D01*
X176507556Y-51373777D01*
X176507560Y-51373782D01*
X176626217Y-51492439D01*
X176626222Y-51492443D01*
X176746815Y-51565343D01*
X176769822Y-51579251D01*
X176930029Y-51629173D01*
X176999653Y-51635500D01*
X177433852Y-51635499D01*
X177500890Y-51655183D01*
X177546645Y-51707987D01*
X177556589Y-51777146D01*
X177527564Y-51840702D01*
X177521532Y-51847180D01*
X174712181Y-54656532D01*
X174650858Y-54690017D01*
X174581166Y-54685033D01*
X174525233Y-54643161D01*
X174500816Y-54577697D01*
X174500500Y-54568851D01*
X174500500Y-48624500D01*
X174520185Y-48557461D01*
X174572989Y-48511706D01*
X174624500Y-48500500D01*
X182240500Y-48500500D01*
X182307539Y-48520185D01*
G37*
%TD.AperFunction*%
%TA.AperFunction,Conductor*%
G36*
X164226492Y-53685185D02*
G01*
X164247134Y-53701819D01*
X164344689Y-53799374D01*
X164344699Y-53799385D01*
X164349029Y-53803715D01*
X164349030Y-53803716D01*
X164460834Y-53915520D01*
X164547645Y-53965639D01*
X164547647Y-53965641D01*
X164585701Y-53987611D01*
X164597765Y-53994577D01*
X164750493Y-54035501D01*
X164750496Y-54035501D01*
X164916203Y-54035501D01*
X164916219Y-54035500D01*
X164955044Y-54035500D01*
X165022083Y-54055185D01*
X165067838Y-54107989D01*
X165077782Y-54177147D01*
X165061161Y-54223649D01*
X165033250Y-54269819D01*
X164983326Y-54430032D01*
X164977000Y-54499655D01*
X164977000Y-55234901D01*
X164957315Y-55301940D01*
X164940681Y-55322582D01*
X164768689Y-55494575D01*
X164631286Y-55631978D01*
X164631284Y-55631980D01*
X164575382Y-55687882D01*
X164519480Y-55743783D01*
X164514518Y-55752378D01*
X164508579Y-55762666D01*
X164440423Y-55880715D01*
X164399499Y-56033443D01*
X164399499Y-56033445D01*
X164399499Y-56201546D01*
X164399500Y-56201559D01*
X164399500Y-57913330D01*
X164399499Y-57913348D01*
X164399499Y-58079054D01*
X164399498Y-58079054D01*
X164399499Y-58079057D01*
X164440423Y-58231785D01*
X164447279Y-58243660D01*
X164447281Y-58243668D01*
X164447284Y-58243667D01*
X164519480Y-58368716D01*
X164631284Y-58480520D01*
X164631285Y-58480521D01*
X164762716Y-58611952D01*
X164863181Y-58712416D01*
X164877884Y-58739343D01*
X164894477Y-58765162D01*
X164895368Y-58771362D01*
X164896666Y-58773739D01*
X164899500Y-58800097D01*
X164899500Y-58875500D01*
X164879815Y-58942539D01*
X164827011Y-58988294D01*
X164775500Y-58999500D01*
X162837589Y-58999500D01*
X162837583Y-58999501D01*
X162777976Y-59005908D01*
X162643131Y-59056202D01*
X162643124Y-59056206D01*
X162527915Y-59142452D01*
X162527912Y-59142455D01*
X162441666Y-59257664D01*
X162441662Y-59257671D01*
X162391368Y-59392517D01*
X162384961Y-59452116D01*
X162384960Y-59452135D01*
X162384960Y-60682868D01*
X162384961Y-60682874D01*
X162391368Y-60742481D01*
X162441662Y-60877326D01*
X162441666Y-60877333D01*
X162527912Y-60992542D01*
X162527915Y-60992545D01*
X162643124Y-61078791D01*
X162643131Y-61078795D01*
X162777977Y-61129089D01*
X162777976Y-61129089D01*
X162784904Y-61129833D01*
X162837587Y-61135498D01*
X164775500Y-61135497D01*
X164842539Y-61155182D01*
X164888294Y-61207985D01*
X164899500Y-61259497D01*
X164899500Y-68199901D01*
X164879815Y-68266940D01*
X164863181Y-68287582D01*
X164624214Y-68526548D01*
X164624215Y-68526549D01*
X164519477Y-68631287D01*
X164499381Y-68666097D01*
X164499380Y-68666099D01*
X164440423Y-68768215D01*
X164399499Y-68920943D01*
X164399499Y-68920945D01*
X164399499Y-69089046D01*
X164399500Y-69089059D01*
X164399500Y-78749705D01*
X164379815Y-78816744D01*
X164327011Y-78862499D01*
X164257853Y-78872443D01*
X164256102Y-78872178D01*
X164090821Y-78846000D01*
X163909179Y-78846000D01*
X163729774Y-78874415D01*
X163557015Y-78930548D01*
X163395170Y-79013012D01*
X163395161Y-79013018D01*
X163378603Y-79025048D01*
X163378602Y-79025049D01*
X163953553Y-79600000D01*
X163947339Y-79600000D01*
X163845606Y-79627259D01*
X163754394Y-79679920D01*
X163679920Y-79754394D01*
X163627259Y-79845606D01*
X163600000Y-79947339D01*
X163600000Y-79953553D01*
X163025049Y-79378602D01*
X163025048Y-79378603D01*
X163013018Y-79395161D01*
X163013012Y-79395170D01*
X162930548Y-79557015D01*
X162874415Y-79729774D01*
X162846000Y-79909178D01*
X162846000Y-80090821D01*
X162874415Y-80270225D01*
X162930548Y-80442984D01*
X163013012Y-80604830D01*
X163013014Y-80604834D01*
X163025048Y-80621395D01*
X163025049Y-80621396D01*
X163600000Y-80046445D01*
X163600000Y-80052661D01*
X163627259Y-80154394D01*
X163679920Y-80245606D01*
X163754394Y-80320080D01*
X163845606Y-80372741D01*
X163947339Y-80400000D01*
X163953552Y-80400000D01*
X163370404Y-80983147D01*
X163362471Y-81020906D01*
X163326106Y-81062571D01*
X163247900Y-81119392D01*
X163247891Y-81119399D01*
X163119399Y-81247891D01*
X163119399Y-81247892D01*
X163119397Y-81247894D01*
X163103085Y-81270346D01*
X163012583Y-81394909D01*
X162930083Y-81556825D01*
X162930081Y-81556828D01*
X162873928Y-81729649D01*
X162873928Y-81729652D01*
X162845500Y-81909139D01*
X162845500Y-82090860D01*
X162873928Y-82270347D01*
X162873928Y-82270350D01*
X162930081Y-82443171D01*
X162930083Y-82443174D01*
X163012583Y-82605090D01*
X163119397Y-82752106D01*
X163119399Y-82752108D01*
X163247894Y-82880603D01*
X163274155Y-82899683D01*
X163316820Y-82955014D01*
X163322798Y-83024627D01*
X163290191Y-83086422D01*
X163274155Y-83100317D01*
X163247894Y-83119396D01*
X163119399Y-83247891D01*
X163119399Y-83247892D01*
X163119397Y-83247894D01*
X163103085Y-83270346D01*
X163012583Y-83394909D01*
X162930083Y-83556825D01*
X162930081Y-83556828D01*
X162873928Y-83729649D01*
X162873927Y-83729656D01*
X162871656Y-83743991D01*
X162841723Y-83807125D01*
X162782410Y-83844053D01*
X162712547Y-83843051D01*
X162661503Y-83812268D01*
X157564319Y-78715084D01*
X157530834Y-78653761D01*
X157528000Y-78627403D01*
X157528000Y-61573920D01*
X158249499Y-61573920D01*
X158278340Y-61718907D01*
X158278343Y-61718917D01*
X158334912Y-61855488D01*
X158334919Y-61855501D01*
X158417048Y-61978415D01*
X158417051Y-61978419D01*
X158521580Y-62082948D01*
X158521584Y-62082951D01*
X158644498Y-62165080D01*
X158644511Y-62165087D01*
X158781082Y-62221656D01*
X158781087Y-62221658D01*
X158781091Y-62221658D01*
X158781092Y-62221659D01*
X158926079Y-62250500D01*
X158926082Y-62250500D01*
X159073920Y-62250500D01*
X159171462Y-62231096D01*
X159218913Y-62221658D01*
X159355495Y-62165084D01*
X159478416Y-62082951D01*
X159582951Y-61978416D01*
X159665084Y-61855495D01*
X159721658Y-61718913D01*
X159750500Y-61573918D01*
X159750500Y-61426082D01*
X159750500Y-61426079D01*
X159721659Y-61281092D01*
X159721658Y-61281091D01*
X159721658Y-61281087D01*
X159700486Y-61229973D01*
X159665087Y-61144511D01*
X159665080Y-61144498D01*
X159582951Y-61021584D01*
X159582948Y-61021580D01*
X159478419Y-60917051D01*
X159478415Y-60917048D01*
X159355501Y-60834919D01*
X159355488Y-60834912D01*
X159218917Y-60778343D01*
X159218907Y-60778340D01*
X159073920Y-60749500D01*
X159073918Y-60749500D01*
X158926082Y-60749500D01*
X158926080Y-60749500D01*
X158781092Y-60778340D01*
X158781082Y-60778343D01*
X158644511Y-60834912D01*
X158644498Y-60834919D01*
X158521584Y-60917048D01*
X158521580Y-60917051D01*
X158417051Y-61021580D01*
X158417048Y-61021584D01*
X158334919Y-61144498D01*
X158334912Y-61144511D01*
X158278343Y-61281082D01*
X158278340Y-61281092D01*
X158249500Y-61426079D01*
X158249500Y-61426082D01*
X158249500Y-61573918D01*
X158249500Y-61573920D01*
X158249499Y-61573920D01*
X157528000Y-61573920D01*
X157528000Y-60258999D01*
X157547685Y-60191960D01*
X157600489Y-60146205D01*
X157652000Y-60134999D01*
X157750000Y-60134999D01*
X157750000Y-59315686D01*
X157754394Y-59320080D01*
X157845606Y-59372741D01*
X157947339Y-59400000D01*
X158052661Y-59400000D01*
X158154394Y-59372741D01*
X158245606Y-59320080D01*
X158250000Y-59315686D01*
X158250000Y-60134999D01*
X158500307Y-60134999D01*
X158569875Y-60128678D01*
X158569883Y-60128676D01*
X158729970Y-60078791D01*
X158729972Y-60078790D01*
X158873467Y-59992045D01*
X158873471Y-59992042D01*
X158992042Y-59873471D01*
X158992045Y-59873467D01*
X159078789Y-59729973D01*
X159128677Y-59569876D01*
X159135000Y-59500298D01*
X159135000Y-59250000D01*
X158315686Y-59250000D01*
X158320080Y-59245606D01*
X158372741Y-59154394D01*
X158400000Y-59052661D01*
X158400000Y-58947339D01*
X158372741Y-58845606D01*
X158320080Y-58754394D01*
X158315686Y-58750000D01*
X159134999Y-58750000D01*
X159134999Y-58499691D01*
X159128678Y-58430124D01*
X159128676Y-58430116D01*
X159078791Y-58270029D01*
X159078790Y-58270027D01*
X158992045Y-58126532D01*
X158992042Y-58126528D01*
X158873471Y-58007957D01*
X158873467Y-58007954D01*
X158729973Y-57921210D01*
X158569876Y-57871322D01*
X158500298Y-57865000D01*
X158250000Y-57865000D01*
X158250000Y-58684314D01*
X158245606Y-58679920D01*
X158154394Y-58627259D01*
X158052661Y-58600000D01*
X157947339Y-58600000D01*
X157845606Y-58627259D01*
X157754394Y-58679920D01*
X157750000Y-58684314D01*
X157750000Y-57903534D01*
X157613439Y-57858852D01*
X157600277Y-57849812D01*
X157584961Y-57845315D01*
X157572073Y-57830441D01*
X157555845Y-57819296D01*
X157549659Y-57804574D01*
X157539206Y-57792511D01*
X157533425Y-57765939D01*
X157528779Y-57754881D01*
X157529778Y-57749175D01*
X157528000Y-57741000D01*
X157528000Y-55259499D01*
X157547685Y-55192460D01*
X157600489Y-55146705D01*
X157652000Y-55135499D01*
X158500353Y-55135499D01*
X158569966Y-55129174D01*
X158569969Y-55129173D01*
X158569971Y-55129173D01*
X158730178Y-55079251D01*
X158825434Y-55021667D01*
X158873777Y-54992443D01*
X158873778Y-54992441D01*
X158873783Y-54992439D01*
X158992439Y-54873783D01*
X159079251Y-54730178D01*
X159129173Y-54569971D01*
X159135500Y-54500347D01*
X159135499Y-53789499D01*
X159155183Y-53722461D01*
X159207987Y-53676706D01*
X159259499Y-53665500D01*
X164159453Y-53665500D01*
X164226492Y-53685185D01*
G37*
%TD.AperFunction*%
%TD*%
%TA.AperFunction,NonConductor*%
G36*
X156757606Y-48505523D02*
G01*
X156772604Y-48509927D01*
X156831355Y-48547672D01*
X156832542Y-48549041D01*
X156860018Y-48603902D01*
X156861663Y-48611460D01*
X156864500Y-48637831D01*
X156864500Y-49500361D01*
X156870824Y-49569963D01*
X156870825Y-49569966D01*
X156870826Y-49569971D01*
X156920745Y-49730172D01*
X156920747Y-49730175D01*
X157007558Y-49873780D01*
X157007561Y-49873783D01*
X157007567Y-49873790D01*
X157126208Y-49992431D01*
X157126215Y-49992437D01*
X157126217Y-49992439D01*
X157126222Y-49992443D01*
X157246815Y-50065343D01*
X157269822Y-50079251D01*
X157430029Y-50129173D01*
X157499653Y-50135500D01*
X158500346Y-50135499D01*
X158500353Y-50135499D01*
X158564787Y-50129644D01*
X158565210Y-50129609D01*
X158565350Y-50129637D01*
X158568120Y-50129512D01*
X158569367Y-50129360D01*
X158569964Y-50129174D01*
X158569966Y-50129174D01*
X158569969Y-50129173D01*
X158569971Y-50129173D01*
X158730178Y-50079251D01*
X158804089Y-50034570D01*
X158865112Y-49997680D01*
X158868055Y-49996215D01*
X158871732Y-49993791D01*
X158873814Y-49992475D01*
X158875471Y-49990750D01*
X158992439Y-49873783D01*
X159079251Y-49730178D01*
X159129173Y-49569971D01*
X159135500Y-49500347D01*
X159135499Y-48642326D01*
X159140521Y-48607394D01*
X159144926Y-48592395D01*
X159182670Y-48533644D01*
X159182681Y-48533633D01*
X159184039Y-48532456D01*
X159238920Y-48504976D01*
X159243259Y-48504032D01*
X159246482Y-48503332D01*
X159272831Y-48500500D01*
X168857671Y-48500500D01*
X168892606Y-48505523D01*
X168907604Y-48509927D01*
X168966355Y-48547672D01*
X168966379Y-48547700D01*
X168966382Y-48547702D01*
X168966383Y-48547704D01*
X168967542Y-48549041D01*
X168995018Y-48603902D01*
X168996663Y-48611460D01*
X168999500Y-48637831D01*
X168999500Y-51701702D01*
X168999499Y-51701704D01*
X168999500Y-51701705D01*
X168997631Y-51714699D01*
X168994476Y-51736640D01*
X168991289Y-51747493D01*
X168953514Y-51806270D01*
X168889957Y-51835293D01*
X168820807Y-51825352D01*
X168813829Y-51822165D01*
X168777657Y-51797051D01*
X167788299Y-50807693D01*
X167788290Y-50807683D01*
X167783959Y-50803352D01*
X167665088Y-50684481D01*
X167665087Y-50684480D01*
X167597085Y-50645220D01*
X167595024Y-50643920D01*
X167590860Y-50639197D01*
X167585801Y-50634798D01*
X167563213Y-50625663D01*
X167528157Y-50605423D01*
X167489974Y-50595192D01*
X167375428Y-50564499D01*
X167375425Y-50564499D01*
X167207814Y-50564499D01*
X167207751Y-50564500D01*
X165780230Y-50564500D01*
X165780225Y-50564499D01*
X165780223Y-50564500D01*
X165745289Y-50559475D01*
X165730290Y-50555070D01*
X165671544Y-50517327D01*
X165671515Y-50517293D01*
X165671514Y-50517293D01*
X165671513Y-50517291D01*
X165670357Y-50515958D01*
X165642881Y-50461097D01*
X165642443Y-50459087D01*
X165641235Y-50453533D01*
X165638399Y-50427177D01*
X165638399Y-49452129D01*
X165638399Y-49452122D01*
X165638239Y-49450197D01*
X165638012Y-49448538D01*
X165631991Y-49392517D01*
X165631990Y-49392515D01*
X165623901Y-49370826D01*
X165611348Y-49337171D01*
X165581697Y-49257671D01*
X165581693Y-49257664D01*
X165495447Y-49142455D01*
X165495444Y-49142452D01*
X165495442Y-49142450D01*
X165437516Y-49099086D01*
X165380235Y-49056206D01*
X165380232Y-49056204D01*
X165380230Y-49056203D01*
X165380228Y-49056202D01*
X165245382Y-49005908D01*
X165245383Y-49005908D01*
X165185783Y-48999501D01*
X165185781Y-48999500D01*
X165185773Y-48999500D01*
X165185764Y-48999500D01*
X165184741Y-48999500D01*
X162888259Y-48999500D01*
X162886328Y-48999659D01*
X162884681Y-48999885D01*
X162828652Y-49005908D01*
X162693802Y-49056204D01*
X162693801Y-49056205D01*
X162578592Y-49142450D01*
X162578586Y-49142456D01*
X162492341Y-49257665D01*
X162492339Y-49257668D01*
X162442044Y-49392516D01*
X162435636Y-49452125D01*
X162435636Y-50547876D01*
X162435795Y-50549806D01*
X162436021Y-50551454D01*
X162442043Y-50607482D01*
X162455634Y-50643920D01*
X162492338Y-50742328D01*
X162492339Y-50742330D01*
X162492340Y-50742332D01*
X162492341Y-50742333D01*
X162578586Y-50857542D01*
X162578588Y-50857544D01*
X162578591Y-50857547D01*
X162693800Y-50943793D01*
X162693807Y-50943797D01*
X162828653Y-50994091D01*
X162828652Y-50994091D01*
X162835580Y-50994835D01*
X162888263Y-51000500D01*
X164291937Y-51000499D01*
X164325549Y-51005331D01*
X164326864Y-51005520D01*
X164337717Y-51008706D01*
X164396498Y-51046476D01*
X164425527Y-51110030D01*
X164415588Y-51179189D01*
X164415587Y-51179191D01*
X164412402Y-51186166D01*
X164387286Y-51222341D01*
X163994055Y-51615573D01*
X163965804Y-51636722D01*
X163942716Y-51649330D01*
X163883286Y-51664500D01*
X156799122Y-51664500D01*
X156646391Y-51705423D01*
X156630332Y-51714696D01*
X156630327Y-51714699D01*
X156509466Y-51784476D01*
X156509464Y-51784478D01*
X156509457Y-51784484D01*
X155724788Y-52569154D01*
X155702067Y-52586164D01*
X155696538Y-52590303D01*
X155686611Y-52595724D01*
X155618338Y-52610578D01*
X155552873Y-52586164D01*
X155511000Y-52530232D01*
X155508313Y-52523026D01*
X155500500Y-52479706D01*
X155500500Y-48642329D01*
X155505523Y-48607393D01*
X155509927Y-48592395D01*
X155519557Y-48577404D01*
X155524567Y-48560324D01*
X155547672Y-48533644D01*
X155549041Y-48532457D01*
X155603920Y-48504977D01*
X155611479Y-48503333D01*
X155637832Y-48500500D01*
X156722670Y-48500500D01*
X156757606Y-48505523D01*
G37*
%TD.AperFunction*%
%TA.AperFunction,NonConductor*%
G36*
X176293809Y-56053534D02*
G01*
X176302443Y-56053157D01*
X176319604Y-56063153D01*
X176344681Y-56072504D01*
X176347038Y-56074268D01*
X176355090Y-56083823D01*
X176362817Y-56088324D01*
X176383178Y-56117153D01*
X176384398Y-56119542D01*
X176392350Y-56139046D01*
X176420748Y-56230177D01*
X176507558Y-56373780D01*
X176507561Y-56373783D01*
X176507567Y-56373790D01*
X176626208Y-56492431D01*
X176626215Y-56492437D01*
X176626217Y-56492439D01*
X176626222Y-56492443D01*
X176769820Y-56579250D01*
X176769822Y-56579251D01*
X176795369Y-56587211D01*
X176827225Y-56602398D01*
X176840234Y-56611064D01*
X176885111Y-56664606D01*
X176889123Y-56673789D01*
X176899500Y-56723443D01*
X176899500Y-58594122D01*
X176894476Y-58629059D01*
X176887064Y-58654300D01*
X176855769Y-58707044D01*
X176324788Y-59238025D01*
X176302067Y-59255035D01*
X176296538Y-59259174D01*
X176286611Y-59264595D01*
X176218338Y-59279449D01*
X176152873Y-59255035D01*
X176111000Y-59199103D01*
X176108313Y-59191897D01*
X176100500Y-59148577D01*
X176100500Y-56229973D01*
X176105522Y-56195040D01*
X176109144Y-56182705D01*
X176109901Y-56179221D01*
X176143379Y-56117904D01*
X176170537Y-56090746D01*
X176198779Y-56069606D01*
X176210966Y-56062951D01*
X176228499Y-56059137D01*
X176232640Y-56056213D01*
X176244289Y-56055702D01*
X176279237Y-56048101D01*
X176293809Y-56053534D01*
G37*
%TD.AperFunction*%
%TA.AperFunction,NonConductor*%
G36*
X173392606Y-48505523D02*
G01*
X173407604Y-48509927D01*
X173422594Y-48519557D01*
X173439675Y-48524567D01*
X173466355Y-48547672D01*
X173467542Y-48549041D01*
X173495018Y-48603902D01*
X173496663Y-48611460D01*
X173499500Y-48637831D01*
X173499500Y-64838135D01*
X173496182Y-64866627D01*
X173489724Y-64893981D01*
X173479951Y-64920943D01*
X173232921Y-65415003D01*
X173232921Y-65415005D01*
X173212805Y-65444005D01*
X173201351Y-65456319D01*
X173143394Y-65491439D01*
X173130161Y-65495073D01*
X173097324Y-65499500D01*
X170403792Y-65499500D01*
X170368857Y-65494477D01*
X170352721Y-65489739D01*
X170338133Y-65480544D01*
X170322462Y-65476241D01*
X170295388Y-65453603D01*
X170286215Y-65443386D01*
X170267577Y-65416002D01*
X170020048Y-64920943D01*
X170010274Y-64893977D01*
X170003817Y-64866623D01*
X170000500Y-64838135D01*
X170000500Y-48642329D01*
X170005523Y-48607393D01*
X170009927Y-48592395D01*
X170047672Y-48533644D01*
X170047700Y-48533619D01*
X170047701Y-48533618D01*
X170049041Y-48532456D01*
X170103920Y-48504977D01*
X170111479Y-48503333D01*
X170137832Y-48500500D01*
X173357670Y-48500500D01*
X173392606Y-48505523D01*
G37*
%TD.AperFunction*%
%TA.AperFunction,NonConductor*%
G36*
X182306205Y-82605523D02*
G01*
X182318244Y-82609058D01*
X182317842Y-82610423D01*
X182368071Y-82637313D01*
X182368989Y-82636218D01*
X182371491Y-82638314D01*
X182372351Y-82639604D01*
X182373762Y-82640360D01*
X182376309Y-82642865D01*
X182375574Y-82643611D01*
X182378383Y-82648655D01*
X182410240Y-82696455D01*
X182410247Y-82696476D01*
X182420582Y-82729641D01*
X182420748Y-82730175D01*
X182420752Y-82730184D01*
X182507558Y-82873780D01*
X182507574Y-82873797D01*
X182533487Y-82899710D01*
X182533492Y-82899714D01*
X182554641Y-82927967D01*
X182562132Y-82941686D01*
X182576984Y-83009942D01*
X182576855Y-83011749D01*
X182557487Y-83069957D01*
X182553306Y-83076463D01*
X182536670Y-83097106D01*
X182507573Y-83126202D01*
X182507558Y-83126219D01*
X182507555Y-83126223D01*
X182420749Y-83269819D01*
X182420397Y-83270523D01*
X182419450Y-83273987D01*
X182412784Y-83295375D01*
X182397600Y-83327224D01*
X182388934Y-83340233D01*
X182375261Y-83351692D01*
X182374044Y-83353520D01*
X182372032Y-83354398D01*
X182335389Y-83385111D01*
X182326206Y-83389124D01*
X182276552Y-83399500D01*
X179268631Y-83399500D01*
X179268628Y-83399499D01*
X179268627Y-83399500D01*
X179233692Y-83394476D01*
X179220374Y-83390565D01*
X179161597Y-83352789D01*
X179132575Y-83289236D01*
X179130723Y-83276355D01*
X179130988Y-83239309D01*
X179154500Y-83090865D01*
X179154500Y-82909141D01*
X179153007Y-82899712D01*
X179137854Y-82804047D01*
X179137352Y-82768776D01*
X179140207Y-82746681D01*
X179160830Y-82692579D01*
X179163355Y-82688887D01*
X179168150Y-82683108D01*
X179168321Y-82682722D01*
X179168656Y-82682499D01*
X179178023Y-82671212D01*
X179179784Y-82669451D01*
X179199815Y-82649420D01*
X179228065Y-82628274D01*
X179251159Y-82615665D01*
X179310580Y-82600500D01*
X182271270Y-82600500D01*
X182306205Y-82605523D01*
G37*
%TD.AperFunction*%
%TA.AperFunction,NonConductor*%
G36*
X182306205Y-84605523D02*
G01*
X182318244Y-84609058D01*
X182317842Y-84610423D01*
X182368071Y-84637313D01*
X182368989Y-84636218D01*
X182371491Y-84638314D01*
X182372351Y-84639604D01*
X182373762Y-84640360D01*
X182376309Y-84642865D01*
X182375245Y-84643946D01*
X182410240Y-84696455D01*
X182410247Y-84696476D01*
X182420582Y-84729641D01*
X182420748Y-84730175D01*
X182420754Y-84730188D01*
X182507549Y-84873767D01*
X182507555Y-84873776D01*
X182507567Y-84873790D01*
X182626208Y-84992431D01*
X182626215Y-84992437D01*
X182626217Y-84992439D01*
X182626222Y-84992443D01*
X182746815Y-85065343D01*
X182769822Y-85079251D01*
X182930029Y-85129173D01*
X182999653Y-85135500D01*
X183692674Y-85135499D01*
X183727606Y-85140521D01*
X183742603Y-85144925D01*
X183801355Y-85182670D01*
X183802542Y-85184039D01*
X183830019Y-85238903D01*
X183831664Y-85246462D01*
X183834500Y-85272830D01*
X183834500Y-87657072D01*
X183834499Y-87657074D01*
X183834500Y-87657075D01*
X183829476Y-87692009D01*
X183822064Y-87717250D01*
X183790769Y-87769994D01*
X181283437Y-90277325D01*
X181255185Y-90298475D01*
X181235636Y-90309150D01*
X181179740Y-90324268D01*
X181175276Y-90324395D01*
X181152351Y-90322919D01*
X181004491Y-90299500D01*
X181004486Y-90299500D01*
X181004481Y-90299500D01*
X180815519Y-90299500D01*
X180815514Y-90299500D01*
X180815509Y-90299500D01*
X180628886Y-90329058D01*
X180628884Y-90329058D01*
X180628881Y-90329059D01*
X180449163Y-90387454D01*
X180449161Y-90387454D01*
X180449161Y-90387455D01*
X180449156Y-90387456D01*
X180296684Y-90465147D01*
X180296682Y-90465147D01*
X180296681Y-90465148D01*
X180296678Y-90465149D01*
X180263274Y-90476533D01*
X180249631Y-90479095D01*
X180180110Y-90472121D01*
X180125395Y-90428669D01*
X180125395Y-90428668D01*
X180123472Y-90425940D01*
X180102487Y-90374750D01*
X180102165Y-90372805D01*
X180100500Y-90352552D01*
X180100500Y-87244466D01*
X180100500Y-87239900D01*
X180100501Y-87239887D01*
X180100501Y-87071784D01*
X180097230Y-87059577D01*
X180059577Y-86919056D01*
X180030515Y-86868718D01*
X180030515Y-86868717D01*
X180002802Y-86820717D01*
X179980524Y-86782130D01*
X179980518Y-86782122D01*
X179980517Y-86782121D01*
X179980514Y-86782117D01*
X179545003Y-86346607D01*
X178997508Y-85799113D01*
X178997506Y-85799110D01*
X178997505Y-85799110D01*
X178976355Y-85770855D01*
X178968865Y-85757137D01*
X178954015Y-85688873D01*
X178954015Y-85688870D01*
X178954485Y-85682297D01*
X178977857Y-85618246D01*
X178987417Y-85605090D01*
X179049490Y-85483263D01*
X179069918Y-85443173D01*
X179069918Y-85443171D01*
X179126071Y-85270350D01*
X179126071Y-85270349D01*
X179126072Y-85270346D01*
X179154500Y-85090861D01*
X179154500Y-84909139D01*
X179137854Y-84804047D01*
X179137352Y-84768776D01*
X179140207Y-84746681D01*
X179160830Y-84692579D01*
X179163355Y-84688887D01*
X179168150Y-84683108D01*
X179168321Y-84682722D01*
X179168656Y-84682499D01*
X179178023Y-84671212D01*
X179179784Y-84669451D01*
X179199815Y-84649420D01*
X179228065Y-84628274D01*
X179251159Y-84615665D01*
X179310580Y-84600500D01*
X182271270Y-84600500D01*
X182306205Y-84605523D01*
G37*
%TD.AperFunction*%
%TA.AperFunction,NonConductor*%
G36*
X178862196Y-89936585D02*
G01*
X178893634Y-89993195D01*
X178895863Y-90002195D01*
X178899500Y-90032005D01*
X178899500Y-92411590D01*
X178899499Y-92411664D01*
X178899499Y-92536960D01*
X178893600Y-92557046D01*
X178940425Y-92731792D01*
X178948580Y-92745916D01*
X178948584Y-92745923D01*
X178957283Y-92760989D01*
X178970403Y-92793761D01*
X178971842Y-92799694D01*
X178970993Y-92817494D01*
X178973757Y-92828885D01*
X178969921Y-92839968D01*
X178968514Y-92869485D01*
X178951381Y-92893541D01*
X178950907Y-92894913D01*
X178949765Y-92895810D01*
X178927983Y-92926397D01*
X178863116Y-92952361D01*
X178794510Y-92939135D01*
X178794508Y-92939134D01*
X178790315Y-92936972D01*
X178759462Y-92914441D01*
X178649426Y-92804405D01*
X178649421Y-92804400D01*
X178628274Y-92776149D01*
X178615667Y-92753060D01*
X178600500Y-92693635D01*
X178600500Y-90071761D01*
X178605522Y-90036828D01*
X178611798Y-90015452D01*
X178640623Y-89965250D01*
X178643689Y-89962004D01*
X178660943Y-89946835D01*
X178688198Y-89927033D01*
X178719407Y-89910567D01*
X178731603Y-89906215D01*
X178801357Y-89902228D01*
X178862196Y-89936585D01*
G37*
%TD.AperFunction*%
%TA.AperFunction,NonConductor*%
G36*
X156506686Y-83370774D02*
G01*
X156513672Y-83373964D01*
X156549842Y-83399077D01*
X162817532Y-89666767D01*
X162838681Y-89695018D01*
X162849356Y-89714567D01*
X162864474Y-89770462D01*
X162864602Y-89774923D01*
X162864118Y-89782425D01*
X162864209Y-89782840D01*
X162864067Y-89783219D01*
X162863125Y-89797852D01*
X162845500Y-89909133D01*
X162845500Y-90090859D01*
X162870889Y-90251163D01*
X162870890Y-90251166D01*
X162873928Y-90270347D01*
X162873928Y-90270350D01*
X162930081Y-90443171D01*
X162930083Y-90443174D01*
X162937849Y-90458417D01*
X162937850Y-90458418D01*
X162951975Y-90486139D01*
X163012583Y-90605090D01*
X163119397Y-90752106D01*
X163247894Y-90880603D01*
X163394910Y-90987417D01*
X163556826Y-91069917D01*
X163556828Y-91069918D01*
X163718022Y-91122291D01*
X163718024Y-91122293D01*
X163725675Y-91124779D01*
X163729654Y-91126072D01*
X163909139Y-91154500D01*
X163909140Y-91154500D01*
X164090860Y-91154500D01*
X164090861Y-91154500D01*
X164270346Y-91126072D01*
X164270349Y-91126071D01*
X164270350Y-91126071D01*
X164443171Y-91069918D01*
X164443171Y-91069917D01*
X164452452Y-91066902D01*
X164452453Y-91066901D01*
X164452458Y-91066900D01*
X164460443Y-91064305D01*
X164469692Y-91056405D01*
X164605090Y-90987417D01*
X164752106Y-90880603D01*
X164880603Y-90752106D01*
X164987417Y-90605090D01*
X165069917Y-90443174D01*
X165083050Y-90402756D01*
X165088022Y-90387456D01*
X165125946Y-90270735D01*
X165125946Y-90270733D01*
X165126071Y-90270350D01*
X165126071Y-90270349D01*
X165126072Y-90270346D01*
X165154500Y-90090861D01*
X165154500Y-89909139D01*
X165126072Y-89729654D01*
X165126071Y-89729650D01*
X165126071Y-89729649D01*
X165069918Y-89556828D01*
X165069916Y-89556825D01*
X164987416Y-89394909D01*
X164880603Y-89247894D01*
X164752106Y-89119397D01*
X164740260Y-89110790D01*
X164714956Y-89086196D01*
X164706481Y-89075205D01*
X164681134Y-89010095D01*
X164695011Y-88941621D01*
X164698273Y-88935439D01*
X164735055Y-88892990D01*
X164752106Y-88880603D01*
X164880603Y-88752106D01*
X164987417Y-88605090D01*
X165069917Y-88443174D01*
X165102233Y-88343715D01*
X165126071Y-88270350D01*
X165126071Y-88270349D01*
X165126072Y-88270346D01*
X165154500Y-88090861D01*
X165154500Y-87909139D01*
X165126072Y-87729654D01*
X165126071Y-87729650D01*
X165126071Y-87729649D01*
X165069918Y-87556828D01*
X165069916Y-87556825D01*
X164987416Y-87394909D01*
X164880603Y-87247894D01*
X164833615Y-87200906D01*
X164812469Y-87172659D01*
X164805814Y-87160471D01*
X164790963Y-87092201D01*
X164815377Y-87026740D01*
X164820477Y-87019927D01*
X164857744Y-86986853D01*
X164868716Y-86980519D01*
X164980519Y-86868716D01*
X165059577Y-86731785D01*
X165100500Y-86579057D01*
X165100500Y-86420942D01*
X165100500Y-86417792D01*
X165099759Y-86403976D01*
X165100678Y-86365297D01*
X165106712Y-86329926D01*
X165126072Y-86270346D01*
X165154500Y-86090861D01*
X165154500Y-85909139D01*
X165126072Y-85729654D01*
X165126071Y-85729650D01*
X165126071Y-85729649D01*
X165069918Y-85556828D01*
X165069916Y-85556825D01*
X165012009Y-85443174D01*
X165012008Y-85443173D01*
X164987418Y-85394912D01*
X164987417Y-85394910D01*
X164880603Y-85247894D01*
X164752106Y-85119397D01*
X164740260Y-85110790D01*
X164714956Y-85086196D01*
X164706481Y-85075205D01*
X164681134Y-85010095D01*
X164695011Y-84941621D01*
X164698273Y-84935439D01*
X164735055Y-84892990D01*
X164752106Y-84880603D01*
X164880603Y-84752106D01*
X164921020Y-84696476D01*
X164951274Y-84654835D01*
X164968627Y-84635564D01*
X164972130Y-84632410D01*
X164976926Y-84628712D01*
X164978422Y-84626745D01*
X164985311Y-84620544D01*
X164990510Y-84618049D01*
X165005367Y-84607480D01*
X165004717Y-84606426D01*
X165006809Y-84605135D01*
X165011526Y-84603099D01*
X165014575Y-84600931D01*
X165016136Y-84600181D01*
X165016505Y-84600950D01*
X165039833Y-84590885D01*
X165156680Y-84559577D01*
X165206799Y-84530639D01*
X165293611Y-84480520D01*
X165293612Y-84480518D01*
X165298073Y-84477943D01*
X165315352Y-84469676D01*
X165328287Y-84464676D01*
X165365592Y-84461564D01*
X165365974Y-84461472D01*
X165366115Y-84461520D01*
X165397913Y-84458868D01*
X165459628Y-84491626D01*
X165492952Y-84548953D01*
X165495462Y-84558547D01*
X165499500Y-84589932D01*
X165499500Y-95681601D01*
X165499499Y-95681603D01*
X165499500Y-95681604D01*
X165496727Y-95700883D01*
X165494476Y-95716539D01*
X165491289Y-95727392D01*
X165453514Y-95786169D01*
X165389957Y-95815192D01*
X165320807Y-95805251D01*
X165313829Y-95802064D01*
X165277657Y-95776950D01*
X156376926Y-86876219D01*
X156355774Y-86847963D01*
X156343167Y-86824874D01*
X156328000Y-86765449D01*
X156328000Y-83494426D01*
X156333021Y-83459499D01*
X156336207Y-83448646D01*
X156373977Y-83389865D01*
X156437531Y-83360836D01*
X156506686Y-83370774D01*
G37*
%TD.AperFunction*%
%TA.AperFunction,NonConductor*%
G36*
X185337129Y-93157015D02*
G01*
X185379001Y-93212948D01*
X185381682Y-93220136D01*
X185389500Y-93263470D01*
X185389500Y-93378643D01*
X185384476Y-93413582D01*
X185378200Y-93434953D01*
X185371539Y-93446551D01*
X185369706Y-93456313D01*
X185349370Y-93485159D01*
X185346305Y-93488404D01*
X185329045Y-93503577D01*
X185217923Y-93584312D01*
X185079820Y-93722415D01*
X185075694Y-93729785D01*
X185073897Y-93732259D01*
X185073888Y-93732272D01*
X184973239Y-93870800D01*
X184916410Y-93982334D01*
X184887454Y-94039163D01*
X184829059Y-94218881D01*
X184829058Y-94218884D01*
X184829058Y-94218886D01*
X184799500Y-94405507D01*
X184799500Y-94594486D01*
X184799499Y-94594486D01*
X184820566Y-94727499D01*
X184820568Y-94727502D01*
X184821073Y-94762793D01*
X184818219Y-94784883D01*
X184797596Y-94838990D01*
X184795076Y-94842675D01*
X184790278Y-94848457D01*
X184790107Y-94848847D01*
X184789768Y-94849071D01*
X184780402Y-94860360D01*
X176290191Y-103350573D01*
X176261940Y-103371722D01*
X176238852Y-103384330D01*
X176179422Y-103399500D01*
X174312329Y-103399500D01*
X174312324Y-103399499D01*
X174312322Y-103399500D01*
X174277388Y-103394475D01*
X174262389Y-103390070D01*
X174203643Y-103352327D01*
X174203614Y-103352293D01*
X174203613Y-103352293D01*
X174203612Y-103352291D01*
X174202456Y-103350958D01*
X174174976Y-103296083D01*
X174173331Y-103288521D01*
X174170499Y-103262168D01*
X174170499Y-103052122D01*
X174170339Y-103050197D01*
X174170113Y-103048543D01*
X174164091Y-102992516D01*
X174149319Y-102952910D01*
X174113797Y-102857671D01*
X174113793Y-102857664D01*
X174027547Y-102742455D01*
X174027544Y-102742452D01*
X174027542Y-102742450D01*
X173969616Y-102699086D01*
X173912335Y-102656206D01*
X173912332Y-102656204D01*
X173912330Y-102656203D01*
X173912328Y-102656202D01*
X173777482Y-102605908D01*
X173777483Y-102605908D01*
X173717883Y-102599501D01*
X173717881Y-102599500D01*
X173717873Y-102599500D01*
X173717865Y-102599500D01*
X173716841Y-102599500D01*
X172796926Y-102599500D01*
X172761991Y-102594477D01*
X172751137Y-102591290D01*
X172736140Y-102581652D01*
X172719037Y-102576631D01*
X172707360Y-102563156D01*
X172692359Y-102553516D01*
X172684953Y-102537299D01*
X172673280Y-102523829D01*
X172670741Y-102506180D01*
X172663334Y-102489960D01*
X172665870Y-102472314D01*
X172663333Y-102454671D01*
X172673272Y-102420815D01*
X172676464Y-102413824D01*
X172701573Y-102377660D01*
X173329734Y-101749500D01*
X177526520Y-97552716D01*
X177605577Y-97415784D01*
X177646501Y-97263057D01*
X177646501Y-97104942D01*
X177646501Y-97097347D01*
X177646501Y-97095663D01*
X177646500Y-97095589D01*
X177646500Y-93817140D01*
X177651521Y-93782213D01*
X177654707Y-93771360D01*
X177692477Y-93712579D01*
X177756031Y-93683550D01*
X177825186Y-93693488D01*
X177832172Y-93696678D01*
X177868342Y-93721791D01*
X180009871Y-95863320D01*
X180009892Y-95863342D01*
X180127073Y-95980523D01*
X180127755Y-95981014D01*
X180130261Y-95982363D01*
X180263995Y-96059573D01*
X180264002Y-96059577D01*
X180375805Y-96089534D01*
X180416728Y-96100500D01*
X180416729Y-96100500D01*
X181901380Y-96100500D01*
X181901443Y-96100501D01*
X181903347Y-96100501D01*
X181910943Y-96100501D01*
X182069054Y-96100501D01*
X182069057Y-96100501D01*
X182221785Y-96059577D01*
X182271904Y-96030639D01*
X182358716Y-95980520D01*
X182470520Y-95868716D01*
X182470520Y-95868714D01*
X182480728Y-95858507D01*
X182480728Y-95858505D01*
X182481233Y-95858001D01*
X182484459Y-95854773D01*
X182490931Y-95848301D01*
X182490934Y-95848300D01*
X182490937Y-95848295D01*
X185165215Y-93174018D01*
X185193464Y-93152871D01*
X185203393Y-93147449D01*
X185271665Y-93132598D01*
X185337129Y-93157015D01*
G37*
%TD.AperFunction*%
%TA.AperFunction,NonConductor*%
G36*
X155679186Y-87891802D02*
G01*
X155686172Y-87894992D01*
X155722342Y-87920105D01*
X165265557Y-97463320D01*
X165265578Y-97463342D01*
X165266621Y-97464385D01*
X165270951Y-97468715D01*
X165270952Y-97468716D01*
X165382756Y-97580520D01*
X165469567Y-97630639D01*
X165469569Y-97630641D01*
X165507618Y-97652608D01*
X165507621Y-97652611D01*
X165507622Y-97652611D01*
X165519683Y-97659575D01*
X165519684Y-97659575D01*
X165519687Y-97659577D01*
X165672415Y-97700500D01*
X165830529Y-97700500D01*
X175363072Y-97700500D01*
X175397999Y-97705521D01*
X175408852Y-97708707D01*
X175467633Y-97746477D01*
X175496662Y-97810031D01*
X175486723Y-97879190D01*
X175486722Y-97879192D01*
X175483537Y-97886167D01*
X175458421Y-97922342D01*
X170766809Y-102613953D01*
X170738553Y-102635105D01*
X170723570Y-102643286D01*
X170706898Y-102647099D01*
X170693093Y-102655027D01*
X170657950Y-102658298D01*
X170644655Y-102657633D01*
X170612536Y-102651720D01*
X170603588Y-102648813D01*
X170603586Y-102648811D01*
X170603586Y-102648812D01*
X170557953Y-102633985D01*
X170557948Y-102633984D01*
X170449086Y-102616742D01*
X170340227Y-102599500D01*
X170340222Y-102599500D01*
X170119778Y-102599500D01*
X170119774Y-102599500D01*
X170061716Y-102608696D01*
X170047201Y-102610995D01*
X169902043Y-102633985D01*
X169692419Y-102702094D01*
X169692396Y-102702102D01*
X169692392Y-102702104D01*
X169495972Y-102802187D01*
X169317658Y-102931739D01*
X169317629Y-102931761D01*
X169161761Y-103087629D01*
X169161739Y-103087658D01*
X169032187Y-103265972D01*
X168932104Y-103462392D01*
X168932102Y-103462396D01*
X168932094Y-103462419D01*
X168863985Y-103672043D01*
X168829500Y-103889772D01*
X168829500Y-104110226D01*
X168863985Y-104327955D01*
X168932078Y-104537530D01*
X168932104Y-104537606D01*
X168969860Y-104611704D01*
X168969860Y-104611706D01*
X168969861Y-104611706D01*
X169010974Y-104692395D01*
X169027333Y-104724500D01*
X169032187Y-104734025D01*
X169032189Y-104734028D01*
X169032192Y-104734033D01*
X169150440Y-104896788D01*
X169161752Y-104912358D01*
X169161756Y-104912363D01*
X169161761Y-104912369D01*
X169317627Y-105068235D01*
X169317636Y-105068243D01*
X169317660Y-105068261D01*
X169419601Y-105142325D01*
X169419603Y-105142326D01*
X169419606Y-105142328D01*
X169495978Y-105197815D01*
X169579246Y-105240242D01*
X169613209Y-105257548D01*
X169624375Y-105263237D01*
X169692393Y-105297895D01*
X169692396Y-105297896D01*
X169797221Y-105331955D01*
X169902049Y-105366015D01*
X170119778Y-105400500D01*
X170119779Y-105400500D01*
X170340221Y-105400500D01*
X170340222Y-105400500D01*
X170557951Y-105366015D01*
X170767606Y-105297895D01*
X170964022Y-105197815D01*
X171142365Y-105068242D01*
X171179935Y-105030670D01*
X171208175Y-105009530D01*
X171220363Y-105002875D01*
X171288632Y-104988023D01*
X171354096Y-105012438D01*
X171354097Y-105012439D01*
X171357772Y-105015190D01*
X171399644Y-105071123D01*
X171426202Y-105142328D01*
X171426203Y-105142329D01*
X171426203Y-105142331D01*
X171512450Y-105257542D01*
X171512456Y-105257548D01*
X171520056Y-105263237D01*
X171627664Y-105343793D01*
X171627671Y-105343797D01*
X171762517Y-105394091D01*
X171762516Y-105394091D01*
X171769444Y-105394835D01*
X171822127Y-105400500D01*
X173717872Y-105400499D01*
X173777483Y-105394091D01*
X173912331Y-105343796D01*
X174027546Y-105257546D01*
X174113796Y-105142331D01*
X174164091Y-105007483D01*
X174170500Y-104947873D01*
X174170500Y-104742329D01*
X174175523Y-104707393D01*
X174179927Y-104692395D01*
X174217672Y-104633644D01*
X174217700Y-104633619D01*
X174217699Y-104633619D01*
X174219041Y-104632456D01*
X174273920Y-104604977D01*
X174281479Y-104603333D01*
X174307832Y-104600500D01*
X176401380Y-104600500D01*
X176401443Y-104600501D01*
X176403347Y-104600501D01*
X176410943Y-104600501D01*
X176569054Y-104600501D01*
X176569057Y-104600501D01*
X176721785Y-104559577D01*
X176771904Y-104530639D01*
X176858716Y-104480520D01*
X176970520Y-104368716D01*
X176970520Y-104368715D01*
X176987960Y-104351275D01*
X176987961Y-104351272D01*
X178291762Y-103047471D01*
X182744237Y-103047471D01*
X182767634Y-103165087D01*
X182778340Y-103218907D01*
X182778343Y-103218917D01*
X182779478Y-103221656D01*
X182834908Y-103355481D01*
X182834913Y-103355490D01*
X182834923Y-103355507D01*
X182917049Y-103478417D01*
X182917050Y-103478418D01*
X182917055Y-103478424D01*
X183021574Y-103582943D01*
X183021580Y-103582948D01*
X183021584Y-103582951D01*
X183144498Y-103665080D01*
X183144511Y-103665087D01*
X183281082Y-103721656D01*
X183281087Y-103721658D01*
X183281091Y-103721658D01*
X183281092Y-103721659D01*
X183281357Y-103721711D01*
X183281358Y-103721712D01*
X183281382Y-103721717D01*
X183426077Y-103750500D01*
X183426079Y-103750500D01*
X183426082Y-103750500D01*
X183573920Y-103750500D01*
X183671462Y-103731096D01*
X183718913Y-103721658D01*
X183855495Y-103665084D01*
X183978416Y-103582951D01*
X184082951Y-103478416D01*
X184165084Y-103355495D01*
X184221658Y-103218913D01*
X184232365Y-103165085D01*
X184232366Y-103165082D01*
X184232366Y-103165080D01*
X184250500Y-103073921D01*
X184250500Y-102926076D01*
X184221419Y-102779885D01*
X184219332Y-102775472D01*
X184205655Y-102742453D01*
X184205655Y-102742452D01*
X184165087Y-102644511D01*
X184165080Y-102644498D01*
X184082951Y-102521584D01*
X184082948Y-102521580D01*
X184082943Y-102521574D01*
X183978424Y-102417055D01*
X183978418Y-102417050D01*
X183978417Y-102417049D01*
X183855507Y-102334923D01*
X183855506Y-102334922D01*
X183855501Y-102334919D01*
X183855488Y-102334912D01*
X183855481Y-102334908D01*
X183725568Y-102281098D01*
X183718917Y-102278343D01*
X183718907Y-102278340D01*
X183718905Y-102278339D01*
X183718900Y-102278338D01*
X183573922Y-102249500D01*
X183573920Y-102249500D01*
X183573918Y-102249500D01*
X183426082Y-102249500D01*
X183426080Y-102249500D01*
X183426078Y-102249500D01*
X183281096Y-102278338D01*
X183281079Y-102278344D01*
X183144517Y-102334908D01*
X183144508Y-102334913D01*
X183144491Y-102334923D01*
X183021581Y-102417049D01*
X183021580Y-102417050D01*
X183021574Y-102417055D01*
X182917055Y-102521574D01*
X182917050Y-102521580D01*
X182834923Y-102644491D01*
X182834916Y-102644504D01*
X182834908Y-102644517D01*
X182778344Y-102781079D01*
X182778338Y-102781098D01*
X182749500Y-102926076D01*
X182749500Y-103029551D01*
X182744237Y-103047471D01*
X178291762Y-103047471D01*
X185617930Y-95721302D01*
X185646179Y-95700155D01*
X185665731Y-95689479D01*
X185721619Y-95674363D01*
X185726098Y-95674235D01*
X185733587Y-95674718D01*
X185734002Y-95674628D01*
X185734381Y-95674769D01*
X185749006Y-95675711D01*
X185905514Y-95700500D01*
X185905519Y-95700500D01*
X186094485Y-95700500D01*
X186094486Y-95700500D01*
X186184963Y-95686169D01*
X186281118Y-95670940D01*
X186281123Y-95670938D01*
X186281125Y-95670938D01*
X186281132Y-95670935D01*
X186281591Y-95670863D01*
X186282400Y-95670621D01*
X186285030Y-95669669D01*
X186319211Y-95658563D01*
X186319712Y-95658399D01*
X186320140Y-95658260D01*
X186320203Y-95658249D01*
X186320231Y-95658231D01*
X186355004Y-95652213D01*
X186368875Y-95651817D01*
X186436449Y-95669579D01*
X186483687Y-95721044D01*
X186486772Y-95727317D01*
X186499500Y-95782039D01*
X186499500Y-103838135D01*
X186496182Y-103866627D01*
X186489724Y-103893981D01*
X186479951Y-103920943D01*
X183732921Y-109415003D01*
X183732921Y-109415005D01*
X183712805Y-109444005D01*
X183701351Y-109456319D01*
X183643394Y-109491439D01*
X183630161Y-109495073D01*
X183597324Y-109499500D01*
X158403792Y-109499500D01*
X158368857Y-109494477D01*
X158352721Y-109489739D01*
X158338133Y-109480544D01*
X158322462Y-109476241D01*
X158295388Y-109453603D01*
X158286215Y-109443386D01*
X158267577Y-109416002D01*
X155520048Y-103920943D01*
X155510274Y-103893977D01*
X155503817Y-103866623D01*
X155500500Y-103838135D01*
X155500500Y-102547471D01*
X157244237Y-102547471D01*
X157278338Y-102718899D01*
X157278344Y-102718919D01*
X157334908Y-102855481D01*
X157334913Y-102855490D01*
X157334923Y-102855507D01*
X157417049Y-102978417D01*
X157417050Y-102978418D01*
X157417055Y-102978424D01*
X157521574Y-103082943D01*
X157521580Y-103082948D01*
X157521584Y-103082951D01*
X157644498Y-103165080D01*
X157644511Y-103165087D01*
X157781082Y-103221656D01*
X157781087Y-103221658D01*
X157781091Y-103221658D01*
X157781092Y-103221659D01*
X157781357Y-103221711D01*
X157781358Y-103221712D01*
X157781382Y-103221717D01*
X157926077Y-103250500D01*
X157926079Y-103250500D01*
X157926082Y-103250500D01*
X158073920Y-103250500D01*
X158171462Y-103231096D01*
X158218913Y-103221658D01*
X158355495Y-103165084D01*
X158478416Y-103082951D01*
X158582951Y-102978416D01*
X158665084Y-102855495D01*
X158721658Y-102718913D01*
X158734011Y-102656811D01*
X158736459Y-102644506D01*
X158736459Y-102644504D01*
X158742537Y-102613953D01*
X158748962Y-102581652D01*
X158750500Y-102573921D01*
X158750500Y-102426076D01*
X158721419Y-102279885D01*
X158719333Y-102275475D01*
X158708574Y-102249501D01*
X158708573Y-102249498D01*
X158665092Y-102144524D01*
X158665089Y-102144517D01*
X158665087Y-102144511D01*
X158665080Y-102144498D01*
X158582951Y-102021584D01*
X158582948Y-102021580D01*
X158582943Y-102021574D01*
X158478424Y-101917055D01*
X158478418Y-101917050D01*
X158478417Y-101917049D01*
X158355507Y-101834923D01*
X158355506Y-101834922D01*
X158355501Y-101834919D01*
X158355488Y-101834912D01*
X158355481Y-101834908D01*
X158218919Y-101778344D01*
X158218920Y-101778344D01*
X158218917Y-101778343D01*
X158218907Y-101778340D01*
X158218905Y-101778339D01*
X158218900Y-101778338D01*
X158073922Y-101749500D01*
X158073920Y-101749500D01*
X158073918Y-101749500D01*
X157926082Y-101749500D01*
X157926080Y-101749500D01*
X157926078Y-101749500D01*
X157781096Y-101778338D01*
X157781079Y-101778344D01*
X157644517Y-101834908D01*
X157644508Y-101834913D01*
X157644491Y-101834923D01*
X157521581Y-101917049D01*
X157521580Y-101917050D01*
X157521574Y-101917055D01*
X157417055Y-102021574D01*
X157417050Y-102021580D01*
X157417049Y-102021581D01*
X157334923Y-102144491D01*
X157334913Y-102144508D01*
X157334908Y-102144517D01*
X157278344Y-102281079D01*
X157278338Y-102281098D01*
X157249500Y-102426076D01*
X157249500Y-102529551D01*
X157244237Y-102547471D01*
X155500500Y-102547471D01*
X155500500Y-88015454D01*
X155505521Y-87980527D01*
X155508707Y-87969674D01*
X155546477Y-87910893D01*
X155610031Y-87881864D01*
X155679186Y-87891802D01*
G37*
%TD.AperFunction*%
M02*
