%TF.GenerationSoftware,KiCad,Pcbnew,10.0.4*%
%TF.CreationDate,2026-07-10T17:34:31+02:00*%
%TF.ProjectId,DazzerBlue-proj,44617a7a-6572-4426-9c75-652d70726f6a,rev?*%
%TF.SameCoordinates,Original*%
%TF.FileFunction,Soldermask,Top*%
%TF.FilePolarity,Negative*%
%FSLAX46Y46*%
G04 Gerber Fmt 4.6, Leading zero omitted, Abs format (unit mm)*
G04 Created by KiCad (PCBNEW 10.0.4) date 2026-07-10 17:34:31*
%MOMM*%
%LPD*%
G01*
G04 APERTURE LIST*
G04 Aperture macros list*
%AMRoundRect*
0 Rectangle with rounded corners*
0 $1 Rounding radius*
0 $2 $3 $4 $5 $6 $7 $8 $9 X,Y pos of 4 corners*
0 Add a 4 corners polygon primitive as box body*
4,1,4,$2,$3,$4,$5,$6,$7,$8,$9,$2,$3,0*
0 Add four circle primitives for the rounded corners*
1,1,$1+$1,$2,$3*
1,1,$1+$1,$4,$5*
1,1,$1+$1,$6,$7*
1,1,$1+$1,$8,$9*
0 Add four rect primitives between the rounded corners*
20,1,$1+$1,$2,$3,$4,$5,0*
20,1,$1+$1,$4,$5,$6,$7,0*
20,1,$1+$1,$6,$7,$8,$9,0*
20,1,$1+$1,$8,$9,$2,$3,0*%
G04 Aperture macros list end*
%ADD10C,1.000000*%
%ADD11RoundRect,0.190500X-0.444500X-0.444500X0.444500X-0.444500X0.444500X0.444500X-0.444500X0.444500X0*%
%ADD12RoundRect,0.190500X0.444500X-0.444500X0.444500X0.444500X-0.444500X0.444500X-0.444500X-0.444500X0*%
%ADD13C,1.400000*%
%ADD14R,2.252440X1.134998*%
%ADD15R,2.201764X1.000000*%
%ADD16RoundRect,0.190500X0.444500X0.444500X-0.444500X0.444500X-0.444500X-0.444500X0.444500X-0.444500X0*%
%ADD17C,1.512000*%
%ADD18R,1.800000X1.800000*%
%ADD19C,1.800000*%
G04 APERTURE END LIST*
D10*
%TO.C,*%
X183500000Y-103000000D03*
%TD*%
D11*
%TO.C,C2*%
X180000000Y-73000000D03*
X183000000Y-73000000D03*
%TD*%
D10*
%TO.C,*%
X185000000Y-61500000D03*
%TD*%
%TO.C,*%
X159000000Y-61500000D03*
%TD*%
D12*
%TO.C,SWL*%
X158000000Y-59000000D03*
X158000000Y-54000000D03*
X158000000Y-49000000D03*
%TD*%
%TO.C,SWR*%
X183500000Y-59000000D03*
X183500000Y-54000000D03*
X183500000Y-49000000D03*
%TD*%
D13*
%TO.C,R5*%
X185990000Y-91500000D03*
X180910000Y-91500000D03*
%TD*%
%TO.C,R4*%
X186000000Y-94500000D03*
X180920000Y-94500000D03*
%TD*%
D11*
%TO.C,C1*%
X183000000Y-70000000D03*
X186000000Y-70000000D03*
%TD*%
D12*
%TO.C,ENC*%
X166112500Y-57500000D03*
X166112500Y-55000000D03*
X166112500Y-52500000D03*
D14*
X164011680Y-60067499D03*
D15*
X164037018Y-50000000D03*
%TD*%
D12*
%TO.C,SWM*%
X177500000Y-60500000D03*
X177500000Y-55500000D03*
X177500000Y-50500000D03*
%TD*%
D10*
%TO.C,*%
X158000000Y-102500000D03*
%TD*%
D16*
%TO.C,CON1*%
X183500000Y-84000000D03*
X183500000Y-82000000D03*
X183500000Y-79500000D03*
X183500000Y-77500000D03*
%TD*%
D17*
%TO.C,U1*%
X178000000Y-79000000D03*
X178000000Y-81000000D03*
X178000000Y-83000000D03*
X178000000Y-85000000D03*
X178000000Y-87000000D03*
X178000000Y-89000000D03*
X164000000Y-80000000D03*
X164000000Y-82000000D03*
X164000000Y-84000000D03*
X164000000Y-86000000D03*
X164000000Y-88000000D03*
X164000000Y-90000000D03*
%TD*%
D18*
%TO.C,+*%
X172770000Y-104000000D03*
D19*
X170230000Y-104000000D03*
%TD*%
M02*
