%TF.GenerationSoftware,KiCad,Pcbnew,10.0.4*%
%TF.CreationDate,2026-07-10T17:34:31+02:00*%
%TF.ProjectId,DazzerBlue-proj,44617a7a-6572-4426-9c75-652d70726f6a,rev?*%
%TF.SameCoordinates,Original*%
%TF.FileFunction,Legend,Top*%
%TF.FilePolarity,Positive*%
%FSLAX46Y46*%
G04 Gerber Fmt 4.6, Leading zero omitted, Abs format (unit mm)*
G04 Created by KiCad (PCBNEW 10.0.4) date 2026-07-10 17:34:31*
%MOMM*%
%LPD*%
G01*
G04 APERTURE LIST*
%ADD10C,0.100000*%
%ADD11C,0.150000*%
%ADD12C,0.120000*%
G04 APERTURE END LIST*
D10*
X155000000Y-48000000D02*
X187000000Y-48000000D01*
X187000000Y-110000000D01*
X155000000Y-110000000D01*
X155000000Y-48000000D01*
X158328428Y-63500000D02*
G75*
G02*
X155500000Y-63500000I-1414214J0D01*
G01*
X155500000Y-63500000D02*
G75*
G02*
X158328428Y-63500000I1414214J0D01*
G01*
X158414214Y-98500000D02*
G75*
G02*
X155585786Y-98500000I-1414214J0D01*
G01*
X155585786Y-98500000D02*
G75*
G02*
X158414214Y-98500000I1414214J0D01*
G01*
X186328428Y-99000000D02*
G75*
G02*
X183500000Y-99000000I-1414214J0D01*
G01*
X183500000Y-99000000D02*
G75*
G02*
X186328428Y-99000000I1414214J0D01*
G01*
X186828428Y-63500000D02*
G75*
G02*
X184000000Y-63500000I-1414214J0D01*
G01*
X184000000Y-63500000D02*
G75*
G02*
X186828428Y-63500000I1414214J0D01*
G01*
X166522931Y-66689892D02*
X166256265Y-66689892D01*
X166256265Y-67108940D02*
X166256265Y-66308940D01*
X166256265Y-66308940D02*
X166637217Y-66308940D01*
X167399122Y-67108940D02*
X167132455Y-66727987D01*
X166941979Y-67108940D02*
X166941979Y-66308940D01*
X166941979Y-66308940D02*
X167246741Y-66308940D01*
X167246741Y-66308940D02*
X167322931Y-66347035D01*
X167322931Y-66347035D02*
X167361026Y-66385130D01*
X167361026Y-66385130D02*
X167399122Y-66461321D01*
X167399122Y-66461321D02*
X167399122Y-66575606D01*
X167399122Y-66575606D02*
X167361026Y-66651797D01*
X167361026Y-66651797D02*
X167322931Y-66689892D01*
X167322931Y-66689892D02*
X167246741Y-66727987D01*
X167246741Y-66727987D02*
X166941979Y-66727987D01*
X167703883Y-67070845D02*
X167818169Y-67108940D01*
X167818169Y-67108940D02*
X168008645Y-67108940D01*
X168008645Y-67108940D02*
X168084836Y-67070845D01*
X168084836Y-67070845D02*
X168122931Y-67032749D01*
X168122931Y-67032749D02*
X168161026Y-66956559D01*
X168161026Y-66956559D02*
X168161026Y-66880368D01*
X168161026Y-66880368D02*
X168122931Y-66804178D01*
X168122931Y-66804178D02*
X168084836Y-66766083D01*
X168084836Y-66766083D02*
X168008645Y-66727987D01*
X168008645Y-66727987D02*
X167856264Y-66689892D01*
X167856264Y-66689892D02*
X167780074Y-66651797D01*
X167780074Y-66651797D02*
X167741979Y-66613702D01*
X167741979Y-66613702D02*
X167703883Y-66537511D01*
X167703883Y-66537511D02*
X167703883Y-66461321D01*
X167703883Y-66461321D02*
X167741979Y-66385130D01*
X167741979Y-66385130D02*
X167780074Y-66347035D01*
X167780074Y-66347035D02*
X167856264Y-66308940D01*
X167856264Y-66308940D02*
X168046741Y-66308940D01*
X168046741Y-66308940D02*
X168161026Y-66347035D01*
X168503884Y-66804178D02*
X169113408Y-66804178D01*
X169494360Y-67108940D02*
X169494360Y-66308940D01*
X169494360Y-66308940D02*
X169761026Y-66880368D01*
X169761026Y-66880368D02*
X170027693Y-66308940D01*
X170027693Y-66308940D02*
X170027693Y-67108940D01*
X170370550Y-67070845D02*
X170484836Y-67108940D01*
X170484836Y-67108940D02*
X170675312Y-67108940D01*
X170675312Y-67108940D02*
X170751503Y-67070845D01*
X170751503Y-67070845D02*
X170789598Y-67032749D01*
X170789598Y-67032749D02*
X170827693Y-66956559D01*
X170827693Y-66956559D02*
X170827693Y-66880368D01*
X170827693Y-66880368D02*
X170789598Y-66804178D01*
X170789598Y-66804178D02*
X170751503Y-66766083D01*
X170751503Y-66766083D02*
X170675312Y-66727987D01*
X170675312Y-66727987D02*
X170522931Y-66689892D01*
X170522931Y-66689892D02*
X170446741Y-66651797D01*
X170446741Y-66651797D02*
X170408646Y-66613702D01*
X170408646Y-66613702D02*
X170370550Y-66537511D01*
X170370550Y-66537511D02*
X170370550Y-66461321D01*
X170370550Y-66461321D02*
X170408646Y-66385130D01*
X170408646Y-66385130D02*
X170446741Y-66347035D01*
X170446741Y-66347035D02*
X170522931Y-66308940D01*
X170522931Y-66308940D02*
X170713408Y-66308940D01*
X170713408Y-66308940D02*
X170827693Y-66347035D01*
X171170551Y-66804178D02*
X171780075Y-66804178D01*
X172084836Y-66308940D02*
X172580074Y-66308940D01*
X172580074Y-66308940D02*
X172313408Y-66613702D01*
X172313408Y-66613702D02*
X172427693Y-66613702D01*
X172427693Y-66613702D02*
X172503884Y-66651797D01*
X172503884Y-66651797D02*
X172541979Y-66689892D01*
X172541979Y-66689892D02*
X172580074Y-66766083D01*
X172580074Y-66766083D02*
X172580074Y-66956559D01*
X172580074Y-66956559D02*
X172541979Y-67032749D01*
X172541979Y-67032749D02*
X172503884Y-67070845D01*
X172503884Y-67070845D02*
X172427693Y-67108940D01*
X172427693Y-67108940D02*
X172199122Y-67108940D01*
X172199122Y-67108940D02*
X172122931Y-67070845D01*
X172122931Y-67070845D02*
X172084836Y-67032749D01*
X173341979Y-67108940D02*
X172884836Y-67108940D01*
X173113408Y-67108940D02*
X173113408Y-66308940D01*
X173113408Y-66308940D02*
X173037217Y-66423225D01*
X173037217Y-66423225D02*
X172961027Y-66499416D01*
X172961027Y-66499416D02*
X172884836Y-66537511D01*
X173837218Y-66308940D02*
X173913408Y-66308940D01*
X173913408Y-66308940D02*
X173989599Y-66347035D01*
X173989599Y-66347035D02*
X174027694Y-66385130D01*
X174027694Y-66385130D02*
X174065789Y-66461321D01*
X174065789Y-66461321D02*
X174103884Y-66613702D01*
X174103884Y-66613702D02*
X174103884Y-66804178D01*
X174103884Y-66804178D02*
X174065789Y-66956559D01*
X174065789Y-66956559D02*
X174027694Y-67032749D01*
X174027694Y-67032749D02*
X173989599Y-67070845D01*
X173989599Y-67070845D02*
X173913408Y-67108940D01*
X173913408Y-67108940D02*
X173837218Y-67108940D01*
X173837218Y-67108940D02*
X173761027Y-67070845D01*
X173761027Y-67070845D02*
X173722932Y-67032749D01*
X173722932Y-67032749D02*
X173684837Y-66956559D01*
X173684837Y-66956559D02*
X173646741Y-66804178D01*
X173646741Y-66804178D02*
X173646741Y-66613702D01*
X173646741Y-66613702D02*
X173684837Y-66461321D01*
X173684837Y-66461321D02*
X173722932Y-66385130D01*
X173722932Y-66385130D02*
X173761027Y-66347035D01*
X173761027Y-66347035D02*
X173837218Y-66308940D01*
X174941980Y-66308940D02*
X175208647Y-67108940D01*
X175208647Y-67108940D02*
X175475313Y-66308940D01*
X176161027Y-67108940D02*
X175703884Y-67108940D01*
X175932456Y-67108940D02*
X175932456Y-66308940D01*
X175932456Y-66308940D02*
X175856265Y-66423225D01*
X175856265Y-66423225D02*
X175780075Y-66499416D01*
X175780075Y-66499416D02*
X175703884Y-66537511D01*
X176503885Y-67032749D02*
X176541980Y-67070845D01*
X176541980Y-67070845D02*
X176503885Y-67108940D01*
X176503885Y-67108940D02*
X176465789Y-67070845D01*
X176465789Y-67070845D02*
X176503885Y-67032749D01*
X176503885Y-67032749D02*
X176503885Y-67108940D01*
X176846741Y-66385130D02*
X176884837Y-66347035D01*
X176884837Y-66347035D02*
X176961027Y-66308940D01*
X176961027Y-66308940D02*
X177151503Y-66308940D01*
X177151503Y-66308940D02*
X177227694Y-66347035D01*
X177227694Y-66347035D02*
X177265789Y-66385130D01*
X177265789Y-66385130D02*
X177303884Y-66461321D01*
X177303884Y-66461321D02*
X177303884Y-66537511D01*
X177303884Y-66537511D02*
X177265789Y-66651797D01*
X177265789Y-66651797D02*
X176808646Y-67108940D01*
X176808646Y-67108940D02*
X177303884Y-67108940D01*
X167437217Y-67673085D02*
X167475313Y-67634990D01*
X167475313Y-67634990D02*
X167551503Y-67596895D01*
X167551503Y-67596895D02*
X167741979Y-67596895D01*
X167741979Y-67596895D02*
X167818170Y-67634990D01*
X167818170Y-67634990D02*
X167856265Y-67673085D01*
X167856265Y-67673085D02*
X167894360Y-67749276D01*
X167894360Y-67749276D02*
X167894360Y-67825466D01*
X167894360Y-67825466D02*
X167856265Y-67939752D01*
X167856265Y-67939752D02*
X167399122Y-68396895D01*
X167399122Y-68396895D02*
X167894360Y-68396895D01*
X168389599Y-67596895D02*
X168465789Y-67596895D01*
X168465789Y-67596895D02*
X168541980Y-67634990D01*
X168541980Y-67634990D02*
X168580075Y-67673085D01*
X168580075Y-67673085D02*
X168618170Y-67749276D01*
X168618170Y-67749276D02*
X168656265Y-67901657D01*
X168656265Y-67901657D02*
X168656265Y-68092133D01*
X168656265Y-68092133D02*
X168618170Y-68244514D01*
X168618170Y-68244514D02*
X168580075Y-68320704D01*
X168580075Y-68320704D02*
X168541980Y-68358800D01*
X168541980Y-68358800D02*
X168465789Y-68396895D01*
X168465789Y-68396895D02*
X168389599Y-68396895D01*
X168389599Y-68396895D02*
X168313408Y-68358800D01*
X168313408Y-68358800D02*
X168275313Y-68320704D01*
X168275313Y-68320704D02*
X168237218Y-68244514D01*
X168237218Y-68244514D02*
X168199122Y-68092133D01*
X168199122Y-68092133D02*
X168199122Y-67901657D01*
X168199122Y-67901657D02*
X168237218Y-67749276D01*
X168237218Y-67749276D02*
X168275313Y-67673085D01*
X168275313Y-67673085D02*
X168313408Y-67634990D01*
X168313408Y-67634990D02*
X168389599Y-67596895D01*
X169418170Y-68396895D02*
X168961027Y-68396895D01*
X169189599Y-68396895D02*
X169189599Y-67596895D01*
X169189599Y-67596895D02*
X169113408Y-67711180D01*
X169113408Y-67711180D02*
X169037218Y-67787371D01*
X169037218Y-67787371D02*
X168961027Y-67825466D01*
X169875313Y-67939752D02*
X169799123Y-67901657D01*
X169799123Y-67901657D02*
X169761028Y-67863561D01*
X169761028Y-67863561D02*
X169722932Y-67787371D01*
X169722932Y-67787371D02*
X169722932Y-67749276D01*
X169722932Y-67749276D02*
X169761028Y-67673085D01*
X169761028Y-67673085D02*
X169799123Y-67634990D01*
X169799123Y-67634990D02*
X169875313Y-67596895D01*
X169875313Y-67596895D02*
X170027694Y-67596895D01*
X170027694Y-67596895D02*
X170103885Y-67634990D01*
X170103885Y-67634990D02*
X170141980Y-67673085D01*
X170141980Y-67673085D02*
X170180075Y-67749276D01*
X170180075Y-67749276D02*
X170180075Y-67787371D01*
X170180075Y-67787371D02*
X170141980Y-67863561D01*
X170141980Y-67863561D02*
X170103885Y-67901657D01*
X170103885Y-67901657D02*
X170027694Y-67939752D01*
X170027694Y-67939752D02*
X169875313Y-67939752D01*
X169875313Y-67939752D02*
X169799123Y-67977847D01*
X169799123Y-67977847D02*
X169761028Y-68015942D01*
X169761028Y-68015942D02*
X169722932Y-68092133D01*
X169722932Y-68092133D02*
X169722932Y-68244514D01*
X169722932Y-68244514D02*
X169761028Y-68320704D01*
X169761028Y-68320704D02*
X169799123Y-68358800D01*
X169799123Y-68358800D02*
X169875313Y-68396895D01*
X169875313Y-68396895D02*
X170027694Y-68396895D01*
X170027694Y-68396895D02*
X170103885Y-68358800D01*
X170103885Y-68358800D02*
X170141980Y-68320704D01*
X170141980Y-68320704D02*
X170180075Y-68244514D01*
X170180075Y-68244514D02*
X170180075Y-68092133D01*
X170180075Y-68092133D02*
X170141980Y-68015942D01*
X170141980Y-68015942D02*
X170103885Y-67977847D01*
X170103885Y-67977847D02*
X170027694Y-67939752D01*
X170522933Y-68320704D02*
X170561028Y-68358800D01*
X170561028Y-68358800D02*
X170522933Y-68396895D01*
X170522933Y-68396895D02*
X170484837Y-68358800D01*
X170484837Y-68358800D02*
X170522933Y-68320704D01*
X170522933Y-68320704D02*
X170522933Y-68396895D01*
X171056266Y-67596895D02*
X171132456Y-67596895D01*
X171132456Y-67596895D02*
X171208647Y-67634990D01*
X171208647Y-67634990D02*
X171246742Y-67673085D01*
X171246742Y-67673085D02*
X171284837Y-67749276D01*
X171284837Y-67749276D02*
X171322932Y-67901657D01*
X171322932Y-67901657D02*
X171322932Y-68092133D01*
X171322932Y-68092133D02*
X171284837Y-68244514D01*
X171284837Y-68244514D02*
X171246742Y-68320704D01*
X171246742Y-68320704D02*
X171208647Y-68358800D01*
X171208647Y-68358800D02*
X171132456Y-68396895D01*
X171132456Y-68396895D02*
X171056266Y-68396895D01*
X171056266Y-68396895D02*
X170980075Y-68358800D01*
X170980075Y-68358800D02*
X170941980Y-68320704D01*
X170941980Y-68320704D02*
X170903885Y-68244514D01*
X170903885Y-68244514D02*
X170865789Y-68092133D01*
X170865789Y-68092133D02*
X170865789Y-67901657D01*
X170865789Y-67901657D02*
X170903885Y-67749276D01*
X170903885Y-67749276D02*
X170941980Y-67673085D01*
X170941980Y-67673085D02*
X170980075Y-67634990D01*
X170980075Y-67634990D02*
X171056266Y-67596895D01*
X171703885Y-68396895D02*
X171856266Y-68396895D01*
X171856266Y-68396895D02*
X171932456Y-68358800D01*
X171932456Y-68358800D02*
X171970552Y-68320704D01*
X171970552Y-68320704D02*
X172046742Y-68206419D01*
X172046742Y-68206419D02*
X172084837Y-68054038D01*
X172084837Y-68054038D02*
X172084837Y-67749276D01*
X172084837Y-67749276D02*
X172046742Y-67673085D01*
X172046742Y-67673085D02*
X172008647Y-67634990D01*
X172008647Y-67634990D02*
X171932456Y-67596895D01*
X171932456Y-67596895D02*
X171780075Y-67596895D01*
X171780075Y-67596895D02*
X171703885Y-67634990D01*
X171703885Y-67634990D02*
X171665790Y-67673085D01*
X171665790Y-67673085D02*
X171627694Y-67749276D01*
X171627694Y-67749276D02*
X171627694Y-67939752D01*
X171627694Y-67939752D02*
X171665790Y-68015942D01*
X171665790Y-68015942D02*
X171703885Y-68054038D01*
X171703885Y-68054038D02*
X171780075Y-68092133D01*
X171780075Y-68092133D02*
X171932456Y-68092133D01*
X171932456Y-68092133D02*
X172008647Y-68054038D01*
X172008647Y-68054038D02*
X172046742Y-68015942D01*
X172046742Y-68015942D02*
X172084837Y-67939752D01*
X172427695Y-68320704D02*
X172465790Y-68358800D01*
X172465790Y-68358800D02*
X172427695Y-68396895D01*
X172427695Y-68396895D02*
X172389599Y-68358800D01*
X172389599Y-68358800D02*
X172427695Y-68320704D01*
X172427695Y-68320704D02*
X172427695Y-68396895D01*
X172770551Y-67673085D02*
X172808647Y-67634990D01*
X172808647Y-67634990D02*
X172884837Y-67596895D01*
X172884837Y-67596895D02*
X173075313Y-67596895D01*
X173075313Y-67596895D02*
X173151504Y-67634990D01*
X173151504Y-67634990D02*
X173189599Y-67673085D01*
X173189599Y-67673085D02*
X173227694Y-67749276D01*
X173227694Y-67749276D02*
X173227694Y-67825466D01*
X173227694Y-67825466D02*
X173189599Y-67939752D01*
X173189599Y-67939752D02*
X172732456Y-68396895D01*
X172732456Y-68396895D02*
X173227694Y-68396895D01*
X173951504Y-67596895D02*
X173570552Y-67596895D01*
X173570552Y-67596895D02*
X173532456Y-67977847D01*
X173532456Y-67977847D02*
X173570552Y-67939752D01*
X173570552Y-67939752D02*
X173646742Y-67901657D01*
X173646742Y-67901657D02*
X173837218Y-67901657D01*
X173837218Y-67901657D02*
X173913409Y-67939752D01*
X173913409Y-67939752D02*
X173951504Y-67977847D01*
X173951504Y-67977847D02*
X173989599Y-68054038D01*
X173989599Y-68054038D02*
X173989599Y-68244514D01*
X173989599Y-68244514D02*
X173951504Y-68320704D01*
X173951504Y-68320704D02*
X173913409Y-68358800D01*
X173913409Y-68358800D02*
X173837218Y-68396895D01*
X173837218Y-68396895D02*
X173646742Y-68396895D01*
X173646742Y-68396895D02*
X173570552Y-68358800D01*
X173570552Y-68358800D02*
X173532456Y-68320704D01*
X163303884Y-77372419D02*
X163303884Y-76372419D01*
X164351502Y-77277180D02*
X164303883Y-77324800D01*
X164303883Y-77324800D02*
X164161026Y-77372419D01*
X164161026Y-77372419D02*
X164065788Y-77372419D01*
X164065788Y-77372419D02*
X163922931Y-77324800D01*
X163922931Y-77324800D02*
X163827693Y-77229561D01*
X163827693Y-77229561D02*
X163780074Y-77134323D01*
X163780074Y-77134323D02*
X163732455Y-76943847D01*
X163732455Y-76943847D02*
X163732455Y-76800990D01*
X163732455Y-76800990D02*
X163780074Y-76610514D01*
X163780074Y-76610514D02*
X163827693Y-76515276D01*
X163827693Y-76515276D02*
X163922931Y-76420038D01*
X163922931Y-76420038D02*
X164065788Y-76372419D01*
X164065788Y-76372419D02*
X164161026Y-76372419D01*
X164161026Y-76372419D02*
X164303883Y-76420038D01*
X164303883Y-76420038D02*
X164351502Y-76467657D01*
X165303883Y-77372419D02*
X164732455Y-77372419D01*
X165018169Y-77372419D02*
X165018169Y-76372419D01*
X165018169Y-76372419D02*
X164922931Y-76515276D01*
X164922931Y-76515276D02*
X164827693Y-76610514D01*
X164827693Y-76610514D02*
X164732455Y-76658133D01*
X158467657Y-93243734D02*
X158420038Y-93196115D01*
X158420038Y-93196115D02*
X158372419Y-93100877D01*
X158372419Y-93100877D02*
X158372419Y-92862782D01*
X158372419Y-92862782D02*
X158420038Y-92767544D01*
X158420038Y-92767544D02*
X158467657Y-92719925D01*
X158467657Y-92719925D02*
X158562895Y-92672306D01*
X158562895Y-92672306D02*
X158658133Y-92672306D01*
X158658133Y-92672306D02*
X158800990Y-92719925D01*
X158800990Y-92719925D02*
X159372419Y-93291353D01*
X159372419Y-93291353D02*
X159372419Y-92672306D01*
X159372419Y-92243734D02*
X158372419Y-92243734D01*
X158848609Y-92243734D02*
X158848609Y-91672306D01*
X159372419Y-91672306D02*
X158372419Y-91672306D01*
X158991466Y-91196115D02*
X158991466Y-90434211D01*
X158372419Y-89767544D02*
X158372419Y-89672306D01*
X158372419Y-89672306D02*
X158420038Y-89577068D01*
X158420038Y-89577068D02*
X158467657Y-89529449D01*
X158467657Y-89529449D02*
X158562895Y-89481830D01*
X158562895Y-89481830D02*
X158753371Y-89434211D01*
X158753371Y-89434211D02*
X158991466Y-89434211D01*
X158991466Y-89434211D02*
X159181942Y-89481830D01*
X159181942Y-89481830D02*
X159277180Y-89529449D01*
X159277180Y-89529449D02*
X159324800Y-89577068D01*
X159324800Y-89577068D02*
X159372419Y-89672306D01*
X159372419Y-89672306D02*
X159372419Y-89767544D01*
X159372419Y-89767544D02*
X159324800Y-89862782D01*
X159324800Y-89862782D02*
X159277180Y-89910401D01*
X159277180Y-89910401D02*
X159181942Y-89958020D01*
X159181942Y-89958020D02*
X158991466Y-90005639D01*
X158991466Y-90005639D02*
X158753371Y-90005639D01*
X158753371Y-90005639D02*
X158562895Y-89958020D01*
X158562895Y-89958020D02*
X158467657Y-89910401D01*
X158467657Y-89910401D02*
X158420038Y-89862782D01*
X158420038Y-89862782D02*
X158372419Y-89767544D01*
X158372419Y-88815163D02*
X158372419Y-88719925D01*
X158372419Y-88719925D02*
X158420038Y-88624687D01*
X158420038Y-88624687D02*
X158467657Y-88577068D01*
X158467657Y-88577068D02*
X158562895Y-88529449D01*
X158562895Y-88529449D02*
X158753371Y-88481830D01*
X158753371Y-88481830D02*
X158991466Y-88481830D01*
X158991466Y-88481830D02*
X159181942Y-88529449D01*
X159181942Y-88529449D02*
X159277180Y-88577068D01*
X159277180Y-88577068D02*
X159324800Y-88624687D01*
X159324800Y-88624687D02*
X159372419Y-88719925D01*
X159372419Y-88719925D02*
X159372419Y-88815163D01*
X159372419Y-88815163D02*
X159324800Y-88910401D01*
X159324800Y-88910401D02*
X159277180Y-88958020D01*
X159277180Y-88958020D02*
X159181942Y-89005639D01*
X159181942Y-89005639D02*
X158991466Y-89053258D01*
X158991466Y-89053258D02*
X158753371Y-89053258D01*
X158753371Y-89053258D02*
X158562895Y-89005639D01*
X158562895Y-89005639D02*
X158467657Y-88958020D01*
X158467657Y-88958020D02*
X158420038Y-88910401D01*
X158420038Y-88910401D02*
X158372419Y-88815163D01*
X158372419Y-87862782D02*
X158372419Y-87767544D01*
X158372419Y-87767544D02*
X158420038Y-87672306D01*
X158420038Y-87672306D02*
X158467657Y-87624687D01*
X158467657Y-87624687D02*
X158562895Y-87577068D01*
X158562895Y-87577068D02*
X158753371Y-87529449D01*
X158753371Y-87529449D02*
X158991466Y-87529449D01*
X158991466Y-87529449D02*
X159181942Y-87577068D01*
X159181942Y-87577068D02*
X159277180Y-87624687D01*
X159277180Y-87624687D02*
X159324800Y-87672306D01*
X159324800Y-87672306D02*
X159372419Y-87767544D01*
X159372419Y-87767544D02*
X159372419Y-87862782D01*
X159372419Y-87862782D02*
X159324800Y-87958020D01*
X159324800Y-87958020D02*
X159277180Y-88005639D01*
X159277180Y-88005639D02*
X159181942Y-88053258D01*
X159181942Y-88053258D02*
X158991466Y-88100877D01*
X158991466Y-88100877D02*
X158753371Y-88100877D01*
X158753371Y-88100877D02*
X158562895Y-88053258D01*
X158562895Y-88053258D02*
X158467657Y-88005639D01*
X158467657Y-88005639D02*
X158420038Y-87958020D01*
X158420038Y-87958020D02*
X158372419Y-87862782D01*
X159372419Y-86577068D02*
X159372419Y-87148496D01*
X159372419Y-86862782D02*
X158372419Y-86862782D01*
X158372419Y-86862782D02*
X158515276Y-86958020D01*
X158515276Y-86958020D02*
X158610514Y-87053258D01*
X158610514Y-87053258D02*
X158658133Y-87148496D01*
X158738095Y-63909800D02*
X158880952Y-63957419D01*
X158880952Y-63957419D02*
X159119047Y-63957419D01*
X159119047Y-63957419D02*
X159214285Y-63909800D01*
X159214285Y-63909800D02*
X159261904Y-63862180D01*
X159261904Y-63862180D02*
X159309523Y-63766942D01*
X159309523Y-63766942D02*
X159309523Y-63671704D01*
X159309523Y-63671704D02*
X159261904Y-63576466D01*
X159261904Y-63576466D02*
X159214285Y-63528847D01*
X159214285Y-63528847D02*
X159119047Y-63481228D01*
X159119047Y-63481228D02*
X158928571Y-63433609D01*
X158928571Y-63433609D02*
X158833333Y-63385990D01*
X158833333Y-63385990D02*
X158785714Y-63338371D01*
X158785714Y-63338371D02*
X158738095Y-63243133D01*
X158738095Y-63243133D02*
X158738095Y-63147895D01*
X158738095Y-63147895D02*
X158785714Y-63052657D01*
X158785714Y-63052657D02*
X158833333Y-63005038D01*
X158833333Y-63005038D02*
X158928571Y-62957419D01*
X158928571Y-62957419D02*
X159166666Y-62957419D01*
X159166666Y-62957419D02*
X159309523Y-63005038D01*
X159642857Y-62957419D02*
X159880952Y-63957419D01*
X159880952Y-63957419D02*
X160071428Y-63243133D01*
X160071428Y-63243133D02*
X160261904Y-63957419D01*
X160261904Y-63957419D02*
X160500000Y-62957419D01*
X161357142Y-63957419D02*
X160880952Y-63957419D01*
X160880952Y-63957419D02*
X160880952Y-62957419D01*
X181142857Y-63409800D02*
X181285714Y-63457419D01*
X181285714Y-63457419D02*
X181523809Y-63457419D01*
X181523809Y-63457419D02*
X181619047Y-63409800D01*
X181619047Y-63409800D02*
X181666666Y-63362180D01*
X181666666Y-63362180D02*
X181714285Y-63266942D01*
X181714285Y-63266942D02*
X181714285Y-63171704D01*
X181714285Y-63171704D02*
X181666666Y-63076466D01*
X181666666Y-63076466D02*
X181619047Y-63028847D01*
X181619047Y-63028847D02*
X181523809Y-62981228D01*
X181523809Y-62981228D02*
X181333333Y-62933609D01*
X181333333Y-62933609D02*
X181238095Y-62885990D01*
X181238095Y-62885990D02*
X181190476Y-62838371D01*
X181190476Y-62838371D02*
X181142857Y-62743133D01*
X181142857Y-62743133D02*
X181142857Y-62647895D01*
X181142857Y-62647895D02*
X181190476Y-62552657D01*
X181190476Y-62552657D02*
X181238095Y-62505038D01*
X181238095Y-62505038D02*
X181333333Y-62457419D01*
X181333333Y-62457419D02*
X181571428Y-62457419D01*
X181571428Y-62457419D02*
X181714285Y-62505038D01*
X182047619Y-62457419D02*
X182285714Y-63457419D01*
X182285714Y-63457419D02*
X182476190Y-62743133D01*
X182476190Y-62743133D02*
X182666666Y-63457419D01*
X182666666Y-63457419D02*
X182904762Y-62457419D01*
X183857142Y-63457419D02*
X183523809Y-62981228D01*
X183285714Y-63457419D02*
X183285714Y-62457419D01*
X183285714Y-62457419D02*
X183666666Y-62457419D01*
X183666666Y-62457419D02*
X183761904Y-62505038D01*
X183761904Y-62505038D02*
X183809523Y-62552657D01*
X183809523Y-62552657D02*
X183857142Y-62647895D01*
X183857142Y-62647895D02*
X183857142Y-62790752D01*
X183857142Y-62790752D02*
X183809523Y-62885990D01*
X183809523Y-62885990D02*
X183761904Y-62933609D01*
X183761904Y-62933609D02*
X183666666Y-62981228D01*
X183666666Y-62981228D02*
X183285714Y-62981228D01*
D11*
X183333333Y-89954819D02*
X183000000Y-89478628D01*
X182761905Y-89954819D02*
X182761905Y-88954819D01*
X182761905Y-88954819D02*
X183142857Y-88954819D01*
X183142857Y-88954819D02*
X183238095Y-89002438D01*
X183238095Y-89002438D02*
X183285714Y-89050057D01*
X183285714Y-89050057D02*
X183333333Y-89145295D01*
X183333333Y-89145295D02*
X183333333Y-89288152D01*
X183333333Y-89288152D02*
X183285714Y-89383390D01*
X183285714Y-89383390D02*
X183238095Y-89431009D01*
X183238095Y-89431009D02*
X183142857Y-89478628D01*
X183142857Y-89478628D02*
X182761905Y-89478628D01*
X184238095Y-88954819D02*
X183761905Y-88954819D01*
X183761905Y-88954819D02*
X183714286Y-89431009D01*
X183714286Y-89431009D02*
X183761905Y-89383390D01*
X183761905Y-89383390D02*
X183857143Y-89335771D01*
X183857143Y-89335771D02*
X184095238Y-89335771D01*
X184095238Y-89335771D02*
X184190476Y-89383390D01*
X184190476Y-89383390D02*
X184238095Y-89431009D01*
X184238095Y-89431009D02*
X184285714Y-89526247D01*
X184285714Y-89526247D02*
X184285714Y-89764342D01*
X184285714Y-89764342D02*
X184238095Y-89859580D01*
X184238095Y-89859580D02*
X184190476Y-89907200D01*
X184190476Y-89907200D02*
X184095238Y-89954819D01*
X184095238Y-89954819D02*
X183857143Y-89954819D01*
X183857143Y-89954819D02*
X183761905Y-89907200D01*
X183761905Y-89907200D02*
X183714286Y-89859580D01*
X183293333Y-96874819D02*
X182960000Y-96398628D01*
X182721905Y-96874819D02*
X182721905Y-95874819D01*
X182721905Y-95874819D02*
X183102857Y-95874819D01*
X183102857Y-95874819D02*
X183198095Y-95922438D01*
X183198095Y-95922438D02*
X183245714Y-95970057D01*
X183245714Y-95970057D02*
X183293333Y-96065295D01*
X183293333Y-96065295D02*
X183293333Y-96208152D01*
X183293333Y-96208152D02*
X183245714Y-96303390D01*
X183245714Y-96303390D02*
X183198095Y-96351009D01*
X183198095Y-96351009D02*
X183102857Y-96398628D01*
X183102857Y-96398628D02*
X182721905Y-96398628D01*
X184150476Y-96208152D02*
X184150476Y-96874819D01*
X183912381Y-95827200D02*
X183674286Y-96541485D01*
X183674286Y-96541485D02*
X184293333Y-96541485D01*
D10*
X162761905Y-62433609D02*
X163095238Y-62433609D01*
X163238095Y-62957419D02*
X162761905Y-62957419D01*
X162761905Y-62957419D02*
X162761905Y-61957419D01*
X162761905Y-61957419D02*
X163238095Y-61957419D01*
X163666667Y-62957419D02*
X163666667Y-61957419D01*
X163666667Y-61957419D02*
X164238095Y-62957419D01*
X164238095Y-62957419D02*
X164238095Y-61957419D01*
X165285714Y-62862180D02*
X165238095Y-62909800D01*
X165238095Y-62909800D02*
X165095238Y-62957419D01*
X165095238Y-62957419D02*
X165000000Y-62957419D01*
X165000000Y-62957419D02*
X164857143Y-62909800D01*
X164857143Y-62909800D02*
X164761905Y-62814561D01*
X164761905Y-62814561D02*
X164714286Y-62719323D01*
X164714286Y-62719323D02*
X164666667Y-62528847D01*
X164666667Y-62528847D02*
X164666667Y-62385990D01*
X164666667Y-62385990D02*
X164714286Y-62195514D01*
X164714286Y-62195514D02*
X164761905Y-62100276D01*
X164761905Y-62100276D02*
X164857143Y-62005038D01*
X164857143Y-62005038D02*
X165000000Y-61957419D01*
X165000000Y-61957419D02*
X165095238Y-61957419D01*
X165095238Y-61957419D02*
X165238095Y-62005038D01*
X165238095Y-62005038D02*
X165285714Y-62052657D01*
X177000000Y-48785300D02*
X177100000Y-48818633D01*
X177100000Y-48818633D02*
X177266667Y-48818633D01*
X177266667Y-48818633D02*
X177333333Y-48785300D01*
X177333333Y-48785300D02*
X177366667Y-48751966D01*
X177366667Y-48751966D02*
X177400000Y-48685300D01*
X177400000Y-48685300D02*
X177400000Y-48618633D01*
X177400000Y-48618633D02*
X177366667Y-48551966D01*
X177366667Y-48551966D02*
X177333333Y-48518633D01*
X177333333Y-48518633D02*
X177266667Y-48485300D01*
X177266667Y-48485300D02*
X177133333Y-48451966D01*
X177133333Y-48451966D02*
X177066667Y-48418633D01*
X177066667Y-48418633D02*
X177033333Y-48385300D01*
X177033333Y-48385300D02*
X177000000Y-48318633D01*
X177000000Y-48318633D02*
X177000000Y-48251966D01*
X177000000Y-48251966D02*
X177033333Y-48185300D01*
X177033333Y-48185300D02*
X177066667Y-48151966D01*
X177066667Y-48151966D02*
X177133333Y-48118633D01*
X177133333Y-48118633D02*
X177300000Y-48118633D01*
X177300000Y-48118633D02*
X177400000Y-48151966D01*
X177633334Y-48118633D02*
X177800000Y-48818633D01*
X177800000Y-48818633D02*
X177933334Y-48318633D01*
X177933334Y-48318633D02*
X178066667Y-48818633D01*
X178066667Y-48818633D02*
X178233334Y-48118633D01*
X178500000Y-48818633D02*
X178500000Y-48118633D01*
X178500000Y-48118633D02*
X178733334Y-48618633D01*
X178733334Y-48618633D02*
X178966667Y-48118633D01*
X178966667Y-48118633D02*
X178966667Y-48818633D01*
X182362180Y-82214285D02*
X182409800Y-82261904D01*
X182409800Y-82261904D02*
X182457419Y-82404761D01*
X182457419Y-82404761D02*
X182457419Y-82499999D01*
X182457419Y-82499999D02*
X182409800Y-82642856D01*
X182409800Y-82642856D02*
X182314561Y-82738094D01*
X182314561Y-82738094D02*
X182219323Y-82785713D01*
X182219323Y-82785713D02*
X182028847Y-82833332D01*
X182028847Y-82833332D02*
X181885990Y-82833332D01*
X181885990Y-82833332D02*
X181695514Y-82785713D01*
X181695514Y-82785713D02*
X181600276Y-82738094D01*
X181600276Y-82738094D02*
X181505038Y-82642856D01*
X181505038Y-82642856D02*
X181457419Y-82499999D01*
X181457419Y-82499999D02*
X181457419Y-82404761D01*
X181457419Y-82404761D02*
X181505038Y-82261904D01*
X181505038Y-82261904D02*
X181552657Y-82214285D01*
X181457419Y-81595237D02*
X181457419Y-81404761D01*
X181457419Y-81404761D02*
X181505038Y-81309523D01*
X181505038Y-81309523D02*
X181600276Y-81214285D01*
X181600276Y-81214285D02*
X181790752Y-81166666D01*
X181790752Y-81166666D02*
X182124085Y-81166666D01*
X182124085Y-81166666D02*
X182314561Y-81214285D01*
X182314561Y-81214285D02*
X182409800Y-81309523D01*
X182409800Y-81309523D02*
X182457419Y-81404761D01*
X182457419Y-81404761D02*
X182457419Y-81595237D01*
X182457419Y-81595237D02*
X182409800Y-81690475D01*
X182409800Y-81690475D02*
X182314561Y-81785713D01*
X182314561Y-81785713D02*
X182124085Y-81833332D01*
X182124085Y-81833332D02*
X181790752Y-81833332D01*
X181790752Y-81833332D02*
X181600276Y-81785713D01*
X181600276Y-81785713D02*
X181505038Y-81690475D01*
X181505038Y-81690475D02*
X181457419Y-81595237D01*
X182457419Y-80738094D02*
X181457419Y-80738094D01*
X181457419Y-80738094D02*
X182457419Y-80166666D01*
X182457419Y-80166666D02*
X181457419Y-80166666D01*
X182457419Y-79166666D02*
X182457419Y-79738094D01*
X182457419Y-79452380D02*
X181457419Y-79452380D01*
X181457419Y-79452380D02*
X181600276Y-79547618D01*
X181600276Y-79547618D02*
X181695514Y-79642856D01*
X181695514Y-79642856D02*
X181743133Y-79738094D01*
D11*
X167619048Y-104573866D02*
X168380953Y-104573866D01*
X168000000Y-104954819D02*
X168000000Y-104192914D01*
X165880952Y-101954819D02*
X165404762Y-101954819D01*
X165404762Y-101954819D02*
X165404762Y-100954819D01*
X166214286Y-101431009D02*
X166547619Y-101431009D01*
X166690476Y-101954819D02*
X166214286Y-101954819D01*
X166214286Y-101954819D02*
X166214286Y-100954819D01*
X166214286Y-100954819D02*
X166690476Y-100954819D01*
X167119048Y-101954819D02*
X167119048Y-100954819D01*
X167119048Y-100954819D02*
X167357143Y-100954819D01*
X167357143Y-100954819D02*
X167500000Y-101002438D01*
X167500000Y-101002438D02*
X167595238Y-101097676D01*
X167595238Y-101097676D02*
X167642857Y-101192914D01*
X167642857Y-101192914D02*
X167690476Y-101383390D01*
X167690476Y-101383390D02*
X167690476Y-101526247D01*
X167690476Y-101526247D02*
X167642857Y-101716723D01*
X167642857Y-101716723D02*
X167595238Y-101811961D01*
X167595238Y-101811961D02*
X167500000Y-101907200D01*
X167500000Y-101907200D02*
X167357143Y-101954819D01*
X167357143Y-101954819D02*
X167119048Y-101954819D01*
X168642857Y-101954819D02*
X168071429Y-101954819D01*
X168357143Y-101954819D02*
X168357143Y-100954819D01*
X168357143Y-100954819D02*
X168261905Y-101097676D01*
X168261905Y-101097676D02*
X168166667Y-101192914D01*
X168166667Y-101192914D02*
X168071429Y-101240533D01*
%TO.C,C2*%
D10*
X183561553Y-73000000D02*
G75*
G02*
X179438447Y-73000000I-2061553J0D01*
G01*
X179438447Y-73000000D02*
G75*
G02*
X183561553Y-73000000I2061553J0D01*
G01*
%TO.C,SWL*%
X155500000Y-48000000D02*
X161000000Y-48000000D01*
X161000000Y-60000000D01*
X155500000Y-60000000D01*
X155500000Y-48000000D01*
%TO.C,SWR*%
X181000000Y-48000000D02*
X186500000Y-48000000D01*
X186500000Y-60000000D01*
X181000000Y-60000000D01*
X181000000Y-48000000D01*
%TO.C,R5*%
D12*
X185070000Y-91500000D02*
X181910000Y-91500000D01*
D10*
X179990000Y-90500000D02*
X186990000Y-90500000D01*
X186990000Y-92500000D01*
X179990000Y-92500000D01*
X179990000Y-90500000D01*
D12*
X186910000Y-91500000D02*
G75*
G02*
X185070000Y-91500000I-920000J0D01*
G01*
X185070000Y-91500000D02*
G75*
G02*
X186910000Y-91500000I920000J0D01*
G01*
%TO.C,R4*%
X185080000Y-94500000D02*
X181920000Y-94500000D01*
D10*
X180000000Y-93500000D02*
X187000000Y-93500000D01*
X187000000Y-95500000D01*
X180000000Y-95500000D01*
X180000000Y-93500000D01*
D12*
X186920000Y-94500000D02*
G75*
G02*
X185080000Y-94500000I-920000J0D01*
G01*
X185080000Y-94500000D02*
G75*
G02*
X186920000Y-94500000I920000J0D01*
G01*
%TO.C,C1*%
D10*
X186561553Y-70000000D02*
G75*
G02*
X182438447Y-70000000I-2061553J0D01*
G01*
X182438447Y-70000000D02*
G75*
G02*
X186561553Y-70000000I2061553J0D01*
G01*
%TO.C,ENC*%
X161112500Y-49000000D02*
X167112500Y-49000000D01*
X167112500Y-61000000D01*
X161112500Y-61000000D01*
X161112500Y-49000000D01*
%TO.C,SWM*%
X175000000Y-49500000D02*
X180500000Y-49500000D01*
X180500000Y-61500000D01*
X175000000Y-61500000D01*
X175000000Y-49500000D01*
%TO.C,CON1*%
X182500000Y-75500000D02*
X185000000Y-75500000D01*
X185000000Y-85500000D01*
X182500000Y-85500000D01*
X182500000Y-75500000D01*
%TO.C,U1*%
X162500000Y-69000000D02*
X179000000Y-69000000D01*
X179000000Y-97000000D01*
X162500000Y-97000000D01*
X162500000Y-69000000D01*
%TO.C,+*%
D12*
X169940000Y-102790000D02*
X169940000Y-98930000D01*
X173060000Y-102790000D02*
X169940000Y-102790000D01*
X173060000Y-102790000D02*
X173060000Y-98930000D01*
X169540000Y-101670000D02*
X169940000Y-101670000D01*
X169940000Y-102790000D01*
X169540000Y-102790000D01*
X169540000Y-101670000D01*
X170230000Y-102790000D02*
X170230000Y-102920000D01*
X170230000Y-102790000D01*
X172770000Y-102790000D02*
X172770000Y-102920000D01*
X172770000Y-102790000D01*
D10*
X169270000Y-97000000D02*
X173770000Y-97000000D01*
X173770000Y-105000000D01*
X169270000Y-105000000D01*
X169270000Y-97000000D01*
D12*
X169940000Y-98930000D02*
G75*
G02*
X173060000Y-98930000I1560000J0D01*
G01*
%TD*%
M02*
