%TF.GenerationSoftware,KiCad,Pcbnew,10.0.4*%
%TF.CreationDate,2026-07-10T17:34:30+02:00*%
%TF.ProjectId,DazzerBlue-proj,44617a7a-6572-4426-9c75-652d70726f6a,rev?*%
%TF.SameCoordinates,Original*%
%TF.FileFunction,Copper,L1,Top*%
%TF.FilePolarity,Positive*%
%FSLAX46Y46*%
G04 Gerber Fmt 4.6, Leading zero omitted, Abs format (unit mm)*
G04 Created by KiCad (PCBNEW 10.0.4) date 2026-07-10 17:34:30*
%MOMM*%
%LPD*%
G01*
G04 APERTURE LIST*
G04 Aperture macros list*
%AMRoundRect*
0 Rectangle with rounded corners*
0 $1 Rounding radius*
0 $2 $3 $4 $5 $6 $7 $8 $9 X,Y pos of 4 corners*
0 Add a 4 corners polygon primitive as box body*
4,1,4,$2,$3,$4,$5,$6,$7,$8,$9,$2,$3,0*
0 Add four circle primitives for the rounded corners*
1,1,$1+$1,$2,$3*
1,1,$1+$1,$4,$5*
1,1,$1+$1,$6,$7*
1,1,$1+$1,$8,$9*
0 Add four rect primitives between the rounded corners*
20,1,$1+$1,$2,$3,$4,$5,0*
20,1,$1+$1,$4,$5,$6,$7,0*
20,1,$1+$1,$6,$7,$8,$9,0*
20,1,$1+$1,$8,$9,$2,$3,0*%
G04 Aperture macros list end*
%TA.AperFunction,ComponentPad*%
%ADD10RoundRect,0.190500X-0.444500X-0.444500X0.444500X-0.444500X0.444500X0.444500X-0.444500X0.444500X0*%
%TD*%
%TA.AperFunction,ComponentPad*%
%ADD11RoundRect,0.190500X0.444500X-0.444500X0.444500X0.444500X-0.444500X0.444500X-0.444500X-0.444500X0*%
%TD*%
%TA.AperFunction,ComponentPad*%
%ADD12C,1.400000*%
%TD*%
%TA.AperFunction,ComponentPad*%
%ADD13R,2.252440X1.134998*%
%TD*%
%TA.AperFunction,ComponentPad*%
%ADD14R,2.201764X1.000000*%
%TD*%
%TA.AperFunction,ComponentPad*%
%ADD15RoundRect,0.190500X0.444500X0.444500X-0.444500X0.444500X-0.444500X-0.444500X0.444500X-0.444500X0*%
%TD*%
%TA.AperFunction,ComponentPad*%
%ADD16C,1.308000*%
%TD*%
%TA.AperFunction,ComponentPad*%
%ADD17R,1.800000X1.800000*%
%TD*%
%TA.AperFunction,ComponentPad*%
%ADD18C,1.800000*%
%TD*%
%TA.AperFunction,Conductor*%
%ADD19C,0.200000*%
%TD*%
G04 APERTURE END LIST*
D10*
%TO.P,C2,1*%
%TO.N,Net-(CON1-GND)*%
X180000000Y-73000000D03*
%TO.P,C2,2*%
%TO.N,Net-(C2-Pad2)*%
X183000000Y-73000000D03*
%TD*%
D11*
%TO.P,SWL,1,C_1*%
%TO.N,Net-(CON1-GND)*%
X158000000Y-59000000D03*
%TO.P,SWL,2,NO_2*%
%TO.N,Net-(SWL1-NO)*%
X158000000Y-54000000D03*
%TO.P,SWL,3,NC_3*%
%TO.N,unconnected-(SWL1-NC-Pad3)*%
X158000000Y-49000000D03*
%TD*%
%TO.P,SWR,1,C_1*%
%TO.N,Net-(CON1-GND)*%
X183500000Y-59000000D03*
%TO.P,SWR,2,NO_2*%
%TO.N,Net-(SWR1-NO)*%
X183500000Y-54000000D03*
%TO.P,SWR,3,NC_3*%
%TO.N,unconnected-(SWR1-NC-Pad3)*%
X183500000Y-49000000D03*
%TD*%
D12*
%TO.P,R5,1*%
%TO.N,Net-(D1-K)*%
X185990000Y-91500000D03*
%TO.P,R5,2*%
%TO.N,Net-(CON1-VCC)*%
X180910000Y-91500000D03*
%TD*%
%TO.P,R4,1*%
%TO.N,Net-(D1-K)*%
X186000000Y-94500000D03*
%TO.P,R4,2*%
%TO.N,Net-(CON1-VCC)*%
X180920000Y-94500000D03*
%TD*%
D10*
%TO.P,C1,1*%
%TO.N,Net-(CON1-GND)*%
X183000000Y-70000000D03*
%TO.P,C1,2*%
X186000000Y-70000000D03*
%TD*%
D11*
%TO.P,ENC,1,A_1*%
%TO.N,Net-(ENC1-A)*%
X166112500Y-57500000D03*
%TO.P,ENC,2,B_2*%
%TO.N,Net-(ENC1-B)*%
X166112500Y-55000000D03*
%TO.P,ENC,3,C_3*%
%TO.N,Net-(CON1-VCC)*%
X166112500Y-52500000D03*
D13*
%TO.P,ENC,4,THT1_4*%
%TO.N,unconnected-(ENC1-THT1-Pad4)*%
X164011680Y-60067499D03*
D14*
%TO.P,ENC,5,THT2_5*%
%TO.N,unconnected-(ENC1-THT2-Pad5)*%
X164037018Y-50000000D03*
%TD*%
D11*
%TO.P,SWM,1,C_1*%
%TO.N,Net-(CON1-GND)*%
X177500000Y-60500000D03*
%TO.P,SWM,2,NO_2*%
%TO.N,Net-(SWM1-NO)*%
X177500000Y-55500000D03*
%TO.P,SWM,3,NC_3*%
%TO.N,unconnected-(SWM1-NC-Pad3)*%
X177500000Y-50500000D03*
%TD*%
D15*
%TO.P,CON1,1,D1_1*%
%TO.N,Net-(CON1-D1)*%
X183500000Y-84000000D03*
%TO.P,CON1,2,D2_2*%
%TO.N,Net-(CON1-D2)*%
X183500000Y-82000000D03*
%TO.P,CON1,3,VCC_3*%
%TO.N,Net-(CON1-VCC)*%
X183500000Y-79500000D03*
%TO.P,CON1,4,GND_4*%
%TO.N,Net-(CON1-GND)*%
X183500000Y-77500000D03*
%TD*%
D16*
%TO.P,U1,1,VCC_1*%
%TO.N,Net-(CON1-VCC)*%
X178000000Y-79000000D03*
%TO.P,U1,2,GND_2*%
%TO.N,Net-(C2-Pad2)*%
X178000000Y-81000000D03*
%TO.P,U1,3,D2_3*%
%TO.N,Net-(CON1-D2)*%
X178000000Y-83000000D03*
%TO.P,U1,4,D1_4*%
%TO.N,Net-(CON1-D1)*%
X178000000Y-85000000D03*
%TO.P,U1,5,LED_GND_5*%
%TO.N,Net-(D1-A)*%
X178000000Y-87000000D03*
%TO.P,U1,6,LED_VCC_6*%
%TO.N,Net-(D1-K)*%
X178000000Y-89000000D03*
%TO.P,U1,7,GND_7*%
%TO.N,Net-(CON1-GND)*%
X164000000Y-80000000D03*
%TO.P,U1,8,ENC1_8*%
%TO.N,Net-(ENC1-B)*%
X164000000Y-82000000D03*
%TO.P,U1,9,ENC2_9*%
%TO.N,Net-(ENC1-A)*%
X164000000Y-84000000D03*
%TO.P,U1,10,LBTN_10*%
%TO.N,Net-(SWL1-NO)*%
X164000000Y-86000000D03*
%TO.P,U1,11,MBTN_11*%
%TO.N,Net-(SWM1-NO)*%
X164000000Y-88000000D03*
%TO.P,U1,12,RBTN_12*%
%TO.N,Net-(SWR1-NO)*%
X164000000Y-90000000D03*
%TD*%
D17*
%TO.P,+,1,K_1*%
%TO.N,Net-(D1-K)*%
X172770000Y-104000000D03*
D18*
%TO.P,+,2,A_2*%
%TO.N,Net-(D1-A)*%
X170230000Y-104000000D03*
%TD*%
%TO.N,Net-(CON1-GND)*%
D19*
X184350000Y-83600000D02*
X184400000Y-83600000D01*
X184400000Y-83600000D02*
X184500000Y-83500000D01*
%TD*%
M02*
