M48
; DRILL file KiCad 10.0.4 date 2026-07-10T17:34:33
; FORMAT={-:-/ absolute / metric / decimal}
; #@! TF.CreationDate,2026-07-10T17:34:33+02:00
; #@! TF.GenerationSoftware,Kicad,Pcbnew,10.0.4
; #@! TF.FileFunction,Plated,1,2,PTH
FMAT,2
METRIC
; #@! TA.AperFunction,Plated,PTH,ComponentDrill
T1C0.700
; #@! TA.AperFunction,Plated,PTH,ComponentDrill
T2C0.800
; #@! TA.AperFunction,Plated,PTH,ComponentDrill
T3C0.900
; #@! TA.AperFunction,Plated,PTH,ComponentDrill
T4C1.000
%
G90
G05
T1
X180.91Y-91.5
X180.92Y-94.5
X185.99Y-91.5
X186.0Y-94.5
T2
X158.0Y-49.0
X158.0Y-54.0
X158.0Y-59.0
X164.0Y-80.0
X164.0Y-82.0
X164.0Y-84.0
X164.0Y-86.0
X164.0Y-88.0
X164.0Y-90.0
X177.5Y-50.5
X177.5Y-55.5
X177.5Y-60.5
X178.0Y-79.0
X178.0Y-81.0
X178.0Y-83.0
X178.0Y-85.0
X178.0Y-87.0
X178.0Y-89.0
X180.0Y-73.0
X183.0Y-70.0
X183.0Y-73.0
X183.5Y-49.0
X183.5Y-54.0
X183.5Y-59.0
X183.5Y-77.5
X183.5Y-79.5
X183.5Y-82.0
X183.5Y-84.0
X186.0Y-70.0
T3
X170.23Y-104.0
X172.77Y-104.0
T4
X166.112Y-52.5
X166.112Y-55.0
X166.112Y-57.5
T2
G00X163.512Y-50.0
M15
G01X164.713Y-50.0
M16
G05
G00X163.512Y-60.0
M15
G01X164.713Y-60.0
M16
G05
M30
