%TF.GenerationSoftware,KiCad,Pcbnew,10.0.4*%
%TF.CreationDate,2026-07-10T17:34:31+02:00*%
%TF.ProjectId,DazzerBlue-proj,44617a7a-6572-4426-9c75-652d70726f6a,rev?*%
%TF.SameCoordinates,Original*%
%TF.FileFunction,Profile,NP*%
%FSLAX46Y46*%
G04 Gerber Fmt 4.6, Leading zero omitted, Abs format (unit mm)*
G04 Created by KiCad (PCBNEW 10.0.4) date 2026-07-10 17:34:31*
%MOMM*%
%LPD*%
G01*
G04 APERTURE LIST*
%TA.AperFunction,Profile*%
%ADD10C,0.050000*%
%TD*%
G04 APERTURE END LIST*
D10*
X155000000Y-48000000D02*
X158000000Y-48000000D01*
X155000000Y-104000000D02*
X155000000Y-48000000D01*
X155000000Y-104000000D02*
X158000000Y-110000000D01*
X158000000Y-48000000D02*
X184000000Y-48000000D01*
X158000000Y-110000000D02*
X184000000Y-110000000D01*
X166500000Y-69500000D02*
X176000000Y-69500000D01*
X176000000Y-96500000D01*
X166500000Y-96500000D01*
X166500000Y-69500000D01*
X169500000Y-48000000D02*
X174000000Y-48000000D01*
X169500000Y-65000000D02*
X169500000Y-48000000D01*
X169500000Y-65000000D02*
X170000000Y-66000000D01*
X170000000Y-66000000D02*
X173500000Y-66000000D01*
X173500000Y-66000000D02*
X174000000Y-65000000D01*
X174000000Y-65000000D02*
X174000000Y-48000000D01*
X184000000Y-48000000D02*
X187000000Y-48000000D01*
X184000000Y-110000000D02*
X187000000Y-104000000D01*
X187000000Y-104000000D02*
X187000000Y-48000000D01*
%TO.C,U1*%
X166000000Y-69500000D02*
X166000000Y-96500000D01*
X166000000Y-69500000D02*
X176000000Y-69500000D01*
X166000000Y-96500000D02*
X176000000Y-96500000D01*
X175500000Y-96500000D02*
X175500000Y-96500000D01*
X176000000Y-96500000D02*
X176000000Y-69500000D01*
%TD*%
M02*
